<svg width="19" height="25" viewBox="0 0 19 25" fill="none" xmlns="http://www.w3.org/2000/svg">
<path d="M8.07469 5.58691H6.86871C6.83379 5.58691 6.80585 5.61369 6.80469 5.64861C6.80469 5.64861 6.80469 5.64977 6.80469 5.65094V7.62172H8.07469C8.13872 6.94539 8.13872 6.26324 8.07469 5.58691C8.13872 5.65327 8.13872 5.58691 8.07469 5.58691Z" fill="white"/>
<path d="M17.914 5.52703L13.9747 1.52494C13.2763 0.826494 12.26 0.317793 10.99 0.190908C9.82946 0.0651882 8.66305 0.00232815 7.49548 0C6.32908 0 5.16268 0.0640242 4.00326 0.190908C1.52494 0.508701 0 1.96962 0 4.19067V20.2002L4.12898 24.3292L5.97171 23.9485C7.60607 23.6319 9.26255 23.441 10.926 23.377H12.196C13.8607 23.4375 15.5171 23.6284 17.1515 23.9485L18.9931 24.3292V8.32198C19.0571 7.17769 18.6764 6.22548 17.914 5.52703ZM13.4032 18.2946C11.6722 17.9128 9.90396 17.7219 8.13107 17.7231V11.6885H6.86106V17.7231C5.09167 17.7882 3.32926 17.9792 1.5878 18.2946V4.19067C1.5878 2.85664 2.47715 1.90326 4.193 1.71236C6.36633 1.45859 8.56178 1.45859 10.7351 1.71236C12.4556 1.90559 13.3403 2.79378 13.3403 4.19067C13.4032 8.89354 13.4032 13.5941 13.4032 18.2946Z" fill="white"/>
</svg>
