<svg xmlns="http://www.w3.org/2000/svg" viewBox="0 0 621.13 720.42"><defs><style>.cls-1{fill:#fff;}.cls-2{fill:#020202;}</style></defs><g id="Layer_2" data-name="Layer 2"><g id="Layer_1-2" data-name="Layer 1"><path class="cls-1" d="M562.56,174.54c-22-47.69-78.9-158.79-215.84-172.71s-235,51.46-293,197.67C14.26,298.85-6.54,401,1.83,497.43c7,80.19,20,129.13,94.51,162.94q14.82,6.68,32.35,12.68a403.22,403.22,0,0,0,53.7,23.86c31.8,11.71,88.22,23.51,142.57,23.51h0c39.59,0,73.81-6,101.71-17.93a292.23,292.23,0,0,0,37.39-19.11c2.26-.79,4.5-1.58,6.7-2.39.29-.07.51-.22.81-.29,103.56-38.38,138.33-99.89,147-186.81C631.94,359.75,589.35,232.51,562.56,174.54Z"/><path d="M590.48,481.69c-7.9,79-39.5,134.87-133.61,169.74-.26.07-.46.21-.73.27a487.08,487.08,0,0,1-59.37,17.21,5.46,5.46,0,0,1-2.48,0c-4.29-1.08-5.89-7.64-1.34-10.31,114.59-68.68,104.75-204.43,32.6-241.31-9.77-5-13.26-14.86,3.21-18.87,88.82-21.82,63.72-154.62,14.06-181.93-52.75-29-87.89,24.56-102.95,55.42s-48.12,64.73-103.28,9.17S119,267.56,118.11,326.73s55.43,74.37,55.43,74.37c10.1,2.54,16.2,10.17,5.28,20.88s-154,143.31,35.28,229.66c6,2.74,3.08,12-3.28,10.64a612.74,612.74,0,0,1-60.58-16.14c-.13-.06-.27-.06-.4-.13a346,346,0,0,1-33.93-13C48.23,602.24,36.35,557.77,30,484.9c-7.61-87.6,11.29-180.45,47.12-270.73C129.88,81.31,219.05,21.91,343.42,34.56s176.12,113.6,196.13,156.93c24.34,52.68,63,168.31,50.93,290.2"/><path d="M323.65,687.53c-49.39,0-100.66-10.73-129.56-21.36-69.83-25.68-108.27-57.6-114.25-94.88-9.45-58.85,66.81-104.94,67.58-105.4a30.65,30.65,0,0,0,6.92-5.49c-29-2.84-80.29-20.21-79.32-67.76.79-38.28,38.6-67.14,87.93-67.14,20,0,50.51,4.8,82.25,27.69,17.21,12.41,34,19,48.48,19,19.34,0,34.26-11.77,41.17-21.86,14.37-21.09,44.33-65,99.91-65A112.27,112.27,0,0,1,476,293.41c40,15.76,65.37,58.84,57.67,98.07-6.15,31.33-32.31,54.36-72.46,64.31,34.13,19,56.42,51.19,58.82,86.8,3.52,52.07-34.36,98.95-103.93,128.64-25.35,10.82-56.44,16.3-92.41,16.3Z"/><path class="cls-1" d="M317.78,684c-41.31,0-84.21-13-108.38-25.82-58.43-31-90.59-69.63-95.59-114.69-7.91-71.15,55.89-126.86,56.53-127.41a29.69,29.69,0,0,0,5.79-6.65C151.91,406,109,385,109.78,327.52c.66-46.28,32.29-81.17,73.56-81.17,16.74,0,42.26,5.81,68.82,33.48,14.39,15,28.41,22.93,40.55,22.93,16.18,0,28.67-14.23,34.44-26.42,12-25.5,37.09-78.63,83.6-78.63,11.39,0,23,3.31,34.48,9.85,33.5,19.05,54.68,71.13,48.24,118.56-5.15,37.87-27,65.71-60.62,77.73,28.55,23,47.2,61.88,49.21,104.93,2.94,62.94-28.75,119.62-86.95,155.51C373.9,677.36,347.89,684,317.79,684Z"/><path class="cls-2" d="M272.74,563.22c-18.05,1.57-51.76,2.24-47.63-15.22,7.21-30.46,35.86-8.11,50.23,5.52,3.46,3.29,1.85,9.32-2.6,9.7m38.83.74c-5.91-.33-8.54-7.78-4.25-12,17.8-17.49,53.71-46.36,65.8-8.67,6.92,21.62-37.62,22-61.55,20.66m87.68-200.15a156.22,156.22,0,0,1-40.86,34.41A156.48,156.48,0,0,1,386,422a24.87,24.87,0,0,1-.65,34.3,23.63,23.63,0,0,1-16.78,7h0a23.93,23.93,0,0,1-17.44-7.63c-17.68-19-37.23-29.07-56.51-29.07h-1c-16.72.28-32.47,8.36-45.53,23.35a23.85,23.85,0,0,1-18,8.21,23.14,23.14,0,0,1-3.42-.24A23.78,23.78,0,0,1,214,451.7a24.89,24.89,0,0,1-1.75-34.29,125.33,125.33,0,0,1,20-18.55,130.81,130.81,0,0,1-33.08-28.79,24.89,24.89,0,0,1,2.67-34.2,23.71,23.71,0,0,1,34.13,2.76c15.06,18.28,35.44,28.44,57.38,28.59,25.34,0,50.51-12.88,69.55-35.35A23.7,23.7,0,0,1,397,329.59a24.87,24.87,0,0,1,2.21,34.22"/></g></g></svg>