<svg width="165" height="15" viewBox="0 0 165 15" fill="none" xmlns="http://www.w3.org/2000/svg">
<path d="M62.1522 6.39988C62.1522 8.41273 60.5193 10.0449 58.5055 10.0449C56.4918 10.0449 54.8589 8.41273 54.8589 6.39988C54.8589 4.38703 56.4918 2.75488 58.5055 2.75488C60.5193 2.75488 62.1522 4.38703 62.1522 6.39988Z" fill="#B41F24"/>
<path d="M61.8239 6.39996C61.8239 8.23461 60.3369 9.71691 58.5055 9.71691C56.67 9.72096 55.187 8.23461 55.187 6.39996C55.187 4.56936 56.67 3.08301 58.5055 3.08301C60.3409 3.08301 61.8239 4.56936 61.8239 6.39996Z" fill="#EB1F25"/>
<path d="M58.9678 9.08529C58.9678 9.25944 58.7611 9.39714 58.5059 9.39714C58.2506 9.39714 58.0439 9.25944 58.0439 9.08529C58.0439 8.91114 58.2506 8.77344 58.5059 8.77344C58.7611 8.77344 58.9678 8.91114 58.9678 9.08529Z" fill="#ED412B"/>
<path d="M58.5057 6.93861C59.7901 6.93861 60.9571 6.59031 61.8039 6.02331C61.6175 4.37091 60.2115 3.08301 58.5057 3.08301C56.7999 3.08301 55.3939 4.37091 55.2075 6.02736C56.0584 6.59031 57.2213 6.93861 58.5057 6.93861Z" fill="#ED412B"/>
<path d="M60.2194 4.71118C60.2194 5.35108 59.4536 5.86948 58.5054 5.86948C57.5573 5.86948 56.7915 5.35108 56.7915 4.71118C56.7915 4.07128 57.5614 3.54883 58.5054 3.54883C59.4536 3.54883 60.2194 4.06723 60.2194 4.71118Z" fill="#F37660"/>
<path d="M8.90123 6.37988C8.90123 8.38169 7.2773 10.0049 5.27459 10.0049C3.27188 10.0049 1.64795 8.38169 1.64795 6.37988C1.64795 4.37808 3.27188 2.75488 5.27459 2.75488C7.2773 2.75488 8.90123 4.37808 8.90123 6.37988Z" fill="#008245"/>
<path d="M8.57461 6.3798C8.57461 8.20439 7.09574 9.67855 5.27436 9.67855C3.44896 9.67855 1.97412 8.20036 1.97412 6.3798C1.97412 4.55522 3.44896 3.08105 5.27436 3.08105C7.09977 3.08105 8.57461 4.55522 8.57461 6.3798Z" fill="#00994D"/>
<path d="M5.27472 6.9155C6.55211 6.9155 7.71263 6.56911 8.55482 6.00522C8.36946 4.35786 6.97119 3.08105 5.27472 3.08105C3.57826 3.08105 2.17999 4.36189 1.99463 6.00925C2.84085 6.56911 3.99734 6.9155 5.27472 6.9155Z" fill="#31A749"/>
<path d="M6.97887 4.6965C6.97887 5.33289 6.21727 5.84845 5.27435 5.84845C4.33142 5.84845 3.56982 5.33289 3.56982 4.6965C3.56982 4.06011 4.33545 3.54053 5.27435 3.54053C6.21727 3.54456 6.97887 4.06011 6.97887 4.6965Z" fill="#7FC45F"/>
<path d="M5.73418 9.06258C5.73418 9.23578 5.52867 9.37272 5.2748 9.37272C5.02094 9.37272 4.81543 9.23578 4.81543 9.06258C4.81543 8.88939 5.02094 8.75244 5.2748 8.75244C5.52867 8.75244 5.73418 8.89341 5.73418 9.06258Z" fill="#31A749"/>
<path d="M116.006 6.41797C116.006 8.41977 114.382 10.043 112.379 10.043C110.376 10.043 108.752 8.41977 108.752 6.41797C108.752 4.41616 110.376 2.79297 112.379 2.79297C114.382 2.79297 116.006 4.41616 116.006 6.41797Z" fill="#F2A418"/>
<path d="M115.679 6.41789C115.679 8.24247 114.2 9.71664 112.379 9.71664C110.553 9.71664 109.079 8.23845 109.079 6.41789C109.079 4.59331 110.553 3.11914 112.379 3.11914C114.204 3.11914 115.679 4.59331 115.679 6.41789Z" fill="#FFC40C"/>
<path d="M112.839 9.08016C112.839 9.25335 112.633 9.3903 112.379 9.3903C112.125 9.3903 111.92 9.25335 111.92 9.08016C111.92 8.90696 112.125 8.77002 112.379 8.77002C112.633 8.77002 112.839 8.90696 112.839 9.08016Z" fill="#FFD33A"/>
<path d="M112.379 6.95359C113.657 6.95359 114.817 6.6072 115.659 6.04331C115.474 4.39595 114.076 3.11914 112.379 3.11914C110.683 3.11914 109.284 4.39997 109.099 6.04734C109.945 6.6072 111.102 6.95359 112.379 6.95359Z" fill="#FFD33A"/>
<path d="M114.083 4.73459C114.083 5.37097 113.322 5.88653 112.379 5.88653C111.436 5.88653 110.674 5.37097 110.674 4.73459C110.674 4.0982 111.44 3.57861 112.379 3.57861C113.322 3.58264 114.083 4.0982 114.083 4.73459Z" fill="#FFEB67"/>
<path d="M71.8184 6.12842V6.45801C71.8184 6.94141 71.7539 7.37646 71.625 7.76318C71.4961 8.14697 71.313 8.47363 71.0757 8.74316C70.8384 9.0127 70.5557 9.21924 70.2275 9.36279C69.8994 9.50635 69.5347 9.57812 69.1333 9.57812C68.7378 9.57812 68.3745 9.50635 68.0435 9.36279C67.7153 9.21924 67.4312 9.0127 67.1909 8.74316C66.9507 8.47363 66.7646 8.14697 66.6328 7.76318C66.501 7.37646 66.4351 6.94141 66.4351 6.45801V6.12842C66.4351 5.64209 66.501 5.20703 66.6328 4.82324C66.7646 4.43945 66.9492 4.11279 67.1865 3.84326C67.4238 3.5708 67.7065 3.36279 68.0347 3.21924C68.3657 3.07568 68.729 3.00391 69.1245 3.00391C69.5259 3.00391 69.8906 3.07568 70.2188 3.21924C70.5469 3.36279 70.8296 3.5708 71.0669 3.84326C71.3071 4.11279 71.4917 4.43945 71.6206 4.82324C71.7524 5.20703 71.8184 5.64209 71.8184 6.12842ZM70.5967 6.45801V6.11963C70.5967 5.771 70.5645 5.46484 70.5 5.20117C70.4355 4.93457 70.3403 4.71045 70.2144 4.52881C70.0884 4.34717 69.9331 4.21094 69.7485 4.12012C69.564 4.02637 69.356 3.97949 69.1245 3.97949C68.8901 3.97949 68.6821 4.02637 68.5005 4.12012C68.3218 4.21094 68.1694 4.34717 68.0435 4.52881C67.9175 4.71045 67.8208 4.93457 67.7534 5.20117C67.689 5.46484 67.6567 5.771 67.6567 6.11963V6.45801C67.6567 6.80371 67.689 7.10986 67.7534 7.37646C67.8208 7.64307 67.9175 7.86865 68.0435 8.05322C68.1724 8.23486 68.3276 8.37256 68.5093 8.46631C68.6909 8.56006 68.8989 8.60693 69.1333 8.60693C69.3677 8.60693 69.5757 8.56006 69.7573 8.46631C69.939 8.37256 70.0913 8.23486 70.2144 8.05322C70.3403 7.86865 70.4355 7.64307 70.5 7.37646C70.5645 7.10986 70.5967 6.80371 70.5967 6.45801ZM74.2749 9.49023H73.106V4.2959C73.106 3.93848 73.1748 3.63818 73.3125 3.39502C73.4502 3.14893 73.6465 2.96289 73.9014 2.83691C74.1562 2.71094 74.4565 2.64795 74.8022 2.64795C74.9165 2.64795 75.0249 2.65527 75.1274 2.66992C75.2329 2.68457 75.3369 2.70508 75.4395 2.73145L75.4175 3.61475C75.3618 3.6001 75.3003 3.58984 75.2329 3.58398C75.1685 3.57813 75.0967 3.5752 75.0176 3.5752C74.8594 3.5752 74.7246 3.60303 74.6133 3.65869C74.502 3.71436 74.417 3.79639 74.3584 3.90479C74.3027 4.01025 74.2749 4.14062 74.2749 4.2959V9.49023ZM75.2593 4.73535V5.57031H72.3896V4.73535H75.2593ZM77.061 9.49023H75.8965V4.33984C75.8965 3.97363 75.9697 3.66602 76.1162 3.41699C76.2656 3.16504 76.4795 2.97461 76.7578 2.8457C77.0391 2.71387 77.3789 2.64795 77.7773 2.64795C77.9414 2.64795 78.145 2.65674 78.3882 2.67432C78.6343 2.69189 78.8862 2.71387 79.144 2.74023C79.4048 2.7666 79.6392 2.79443 79.8472 2.82373L79.355 3.729C79.0854 3.68213 78.8306 3.64551 78.5903 3.61914C78.353 3.58984 78.1318 3.5752 77.9268 3.5752C77.7422 3.5752 77.584 3.60449 77.4521 3.66309C77.3232 3.72168 77.2251 3.80811 77.1577 3.92236C77.0933 4.03369 77.061 4.17285 77.061 4.33984V9.49023ZM78.6826 9.49023V2.82373H79.8472V9.49023H78.6826ZM78.0278 4.73535V5.57031H75.1758V4.73535H78.0278ZM82.1938 4.73535V9.49023H81.0293V4.73535H82.1938ZM80.9502 3.4917C80.9502 3.31885 81.0088 3.17529 81.126 3.06104C81.2461 2.94678 81.4072 2.88965 81.6094 2.88965C81.8115 2.88965 81.9712 2.94678 82.0884 3.06104C82.2085 3.17529 82.2686 3.31885 82.2686 3.4917C82.2686 3.66162 82.2085 3.80371 82.0884 3.91797C81.9712 4.03223 81.8115 4.08936 81.6094 4.08936C81.4072 4.08936 81.2461 4.03223 81.126 3.91797C81.0088 3.80371 80.9502 3.66162 80.9502 3.4917ZM84.4395 5.75049V9.49023H83.2793V4.73535H84.3691L84.4395 5.75049ZM84.2549 6.94141H83.9121C83.915 6.5957 83.9619 6.28223 84.0527 6.00098C84.1436 5.71973 84.271 5.47803 84.4351 5.27588C84.6021 5.07373 84.7998 4.91846 85.0283 4.81006C85.2568 4.70166 85.5117 4.64746 85.793 4.64746C86.0215 4.64746 86.228 4.67969 86.4126 4.74414C86.5972 4.80859 86.7554 4.91113 86.8872 5.05176C87.022 5.19238 87.1245 5.37695 87.1948 5.60547C87.2681 5.83105 87.3047 6.10938 87.3047 6.44043V9.49023H86.1357V6.43164C86.1357 6.21484 86.1035 6.04346 86.0391 5.91748C85.9775 5.7915 85.8867 5.70215 85.7666 5.64941C85.6494 5.59668 85.5044 5.57031 85.3315 5.57031C85.1528 5.57031 84.9961 5.60693 84.8613 5.68018C84.7295 5.75049 84.6182 5.84863 84.5273 5.97461C84.4395 6.10059 84.3721 6.24561 84.3252 6.40967C84.2783 6.57373 84.2549 6.75098 84.2549 6.94141ZM90.4644 9.57812C90.104 9.57812 89.7803 9.51953 89.4932 9.40234C89.2061 9.28516 88.9614 9.12256 88.7593 8.91455C88.5601 8.70361 88.4062 8.45898 88.2979 8.18066C88.1924 7.89941 88.1396 7.59766 88.1396 7.27539V7.09961C88.1396 6.7334 88.1924 6.40088 88.2979 6.10205C88.4033 5.80029 88.5527 5.54102 88.7461 5.32422C88.9395 5.10742 89.1709 4.94043 89.4404 4.82324C89.71 4.70605 90.0073 4.64746 90.3325 4.64746C90.6694 4.64746 90.9668 4.70459 91.2246 4.81885C91.4824 4.93018 91.6978 5.08838 91.8706 5.29346C92.0435 5.49854 92.1738 5.74463 92.2617 6.03174C92.3496 6.31592 92.3936 6.63086 92.3936 6.97656V7.46436H88.667V6.66455H91.251V6.57666C91.2451 6.39209 91.21 6.22363 91.1455 6.07129C91.0811 5.91602 90.9814 5.79297 90.8467 5.70215C90.7119 5.6084 90.5376 5.56152 90.3237 5.56152C90.1509 5.56152 90 5.59961 89.8711 5.67578C89.7451 5.74902 89.6396 5.85449 89.5547 5.99219C89.4727 6.12695 89.4111 6.28809 89.3701 6.47559C89.3291 6.66309 89.3086 6.87109 89.3086 7.09961V7.27539C89.3086 7.47461 89.335 7.65918 89.3877 7.8291C89.4434 7.99902 89.5239 8.14697 89.6294 8.27295C89.7378 8.396 89.8667 8.49268 90.0161 8.56299C90.1685 8.63037 90.3413 8.66406 90.5347 8.66406C90.7778 8.66406 90.9976 8.61719 91.1938 8.52344C91.3931 8.42676 91.5659 8.28467 91.7124 8.09717L92.2969 8.70361C92.1973 8.8501 92.0625 8.99072 91.8926 9.12549C91.7256 9.26025 91.5234 9.37012 91.2861 9.45508C91.0488 9.53711 90.7749 9.57812 90.4644 9.57812Z" fill="white"/>
<path d="M18.8003 5.96484V6.29443C18.8003 6.77783 18.7358 7.21289 18.6069 7.59961C18.478 7.9834 18.2949 8.31006 18.0576 8.57959C17.8203 8.84912 17.5376 9.05566 17.2095 9.19922C16.8813 9.34277 16.5166 9.41455 16.1152 9.41455C15.7197 9.41455 15.3564 9.34277 15.0254 9.19922C14.6973 9.05566 14.4131 8.84912 14.1729 8.57959C13.9326 8.31006 13.7466 7.9834 13.6147 7.59961C13.4829 7.21289 13.417 6.77783 13.417 6.29443V5.96484C13.417 5.47852 13.4829 5.04346 13.6147 4.65967C13.7466 4.27588 13.9312 3.94922 14.1685 3.67969C14.4058 3.40723 14.6885 3.19922 15.0166 3.05566C15.3477 2.91211 15.7109 2.84033 16.1064 2.84033C16.5078 2.84033 16.8726 2.91211 17.2007 3.05566C17.5288 3.19922 17.8115 3.40723 18.0488 3.67969C18.2891 3.94922 18.4736 4.27588 18.6025 4.65967C18.7344 5.04346 18.8003 5.47852 18.8003 5.96484ZM17.5786 6.29443V5.95605C17.5786 5.60742 17.5464 5.30127 17.4819 5.0376C17.4175 4.771 17.3223 4.54688 17.1963 4.36523C17.0703 4.18359 16.915 4.04736 16.7305 3.95654C16.5459 3.86279 16.3379 3.81592 16.1064 3.81592C15.8721 3.81592 15.6641 3.86279 15.4824 3.95654C15.3037 4.04736 15.1514 4.18359 15.0254 4.36523C14.8994 4.54688 14.8027 4.771 14.7354 5.0376C14.6709 5.30127 14.6387 5.60742 14.6387 5.95605V6.29443C14.6387 6.64014 14.6709 6.94629 14.7354 7.21289C14.8027 7.47949 14.8994 7.70508 15.0254 7.88965C15.1543 8.07129 15.3096 8.20898 15.4912 8.30273C15.6729 8.39648 15.8809 8.44336 16.1152 8.44336C16.3496 8.44336 16.5576 8.39648 16.7393 8.30273C16.9209 8.20898 17.0732 8.07129 17.1963 7.88965C17.3223 7.70508 17.4175 7.47949 17.4819 7.21289C17.5464 6.94629 17.5786 6.64014 17.5786 6.29443ZM20.8745 5.58691V9.32666H19.7144V4.57178H20.8042L20.8745 5.58691ZM20.6899 6.77783H20.3472C20.3501 6.43213 20.397 6.11865 20.4878 5.8374C20.5786 5.55615 20.7061 5.31445 20.8701 5.1123C21.0371 4.91016 21.2349 4.75488 21.4634 4.64648C21.6919 4.53809 21.9468 4.48389 22.228 4.48389C22.4565 4.48389 22.6631 4.51611 22.8477 4.58057C23.0322 4.64502 23.1904 4.74756 23.3223 4.88818C23.457 5.02881 23.5596 5.21338 23.6299 5.44189C23.7031 5.66748 23.7397 5.9458 23.7397 6.27686V9.32666H22.5708V6.26807C22.5708 6.05127 22.5386 5.87988 22.4741 5.75391C22.4126 5.62793 22.3218 5.53857 22.2017 5.48584C22.0845 5.43311 21.9395 5.40674 21.7666 5.40674C21.5879 5.40674 21.4312 5.44336 21.2964 5.5166C21.1646 5.58691 21.0532 5.68506 20.9624 5.81104C20.8745 5.93701 20.8071 6.08203 20.7603 6.24609C20.7134 6.41016 20.6899 6.5874 20.6899 6.77783ZM25.9941 2.57666V9.32666H24.8296V2.57666H25.9941ZM28.332 4.57178V9.32666H27.1675V4.57178H28.332ZM27.0884 3.32812C27.0884 3.15527 27.147 3.01172 27.2642 2.89746C27.3843 2.7832 27.5454 2.72607 27.7476 2.72607C27.9497 2.72607 28.1094 2.7832 28.2266 2.89746C28.3467 3.01172 28.4067 3.15527 28.4067 3.32812C28.4067 3.49805 28.3467 3.64014 28.2266 3.75439C28.1094 3.86865 27.9497 3.92578 27.7476 3.92578C27.5454 3.92578 27.3843 3.86865 27.2642 3.75439C27.147 3.64014 27.0884 3.49805 27.0884 3.32812ZM30.5776 5.58691V9.32666H29.4175V4.57178H30.5073L30.5776 5.58691ZM30.3931 6.77783H30.0503C30.0532 6.43213 30.1001 6.11865 30.1909 5.8374C30.2817 5.55615 30.4092 5.31445 30.5732 5.1123C30.7402 4.91016 30.938 4.75488 31.1665 4.64648C31.395 4.53809 31.6499 4.48389 31.9312 4.48389C32.1597 4.48389 32.3662 4.51611 32.5508 4.58057C32.7354 4.64502 32.8936 4.74756 33.0254 4.88818C33.1602 5.02881 33.2627 5.21338 33.333 5.44189C33.4062 5.66748 33.4429 5.9458 33.4429 6.27686V9.32666H32.2739V6.26807C32.2739 6.05127 32.2417 5.87988 32.1772 5.75391C32.1157 5.62793 32.0249 5.53857 31.9048 5.48584C31.7876 5.43311 31.6426 5.40674 31.4697 5.40674C31.291 5.40674 31.1343 5.44336 30.9995 5.5166C30.8677 5.58691 30.7563 5.68506 30.6655 5.81104C30.5776 5.93701 30.5103 6.08203 30.4634 6.24609C30.4165 6.41016 30.3931 6.5874 30.3931 6.77783ZM36.6025 9.41455C36.2422 9.41455 35.9185 9.35596 35.6313 9.23877C35.3442 9.12158 35.0996 8.95898 34.8975 8.75098C34.6982 8.54004 34.5444 8.29541 34.436 8.01709C34.3306 7.73584 34.2778 7.43408 34.2778 7.11182V6.93604C34.2778 6.56982 34.3306 6.2373 34.436 5.93848C34.5415 5.63672 34.6909 5.37744 34.8843 5.16064C35.0776 4.94385 35.3091 4.77686 35.5786 4.65967C35.8481 4.54248 36.1455 4.48389 36.4707 4.48389C36.8076 4.48389 37.105 4.54102 37.3628 4.65527C37.6206 4.7666 37.8359 4.9248 38.0088 5.12988C38.1816 5.33496 38.312 5.58105 38.3999 5.86816C38.4878 6.15234 38.5317 6.46729 38.5317 6.81299V7.30078H34.8052V6.50098H37.3892V6.41309C37.3833 6.22852 37.3481 6.06006 37.2837 5.90771C37.2192 5.75244 37.1196 5.62939 36.9849 5.53857C36.8501 5.44482 36.6758 5.39795 36.4619 5.39795C36.2891 5.39795 36.1382 5.43604 36.0093 5.51221C35.8833 5.58545 35.7778 5.69092 35.6929 5.82861C35.6108 5.96338 35.5493 6.12451 35.5083 6.31201C35.4673 6.49951 35.4468 6.70752 35.4468 6.93604V7.11182C35.4468 7.31104 35.4731 7.49561 35.5259 7.66553C35.5815 7.83545 35.6621 7.9834 35.7676 8.10938C35.876 8.23242 36.0049 8.3291 36.1543 8.39941C36.3066 8.4668 36.4795 8.50049 36.6729 8.50049C36.916 8.50049 37.1357 8.45361 37.332 8.35986C37.5312 8.26318 37.7041 8.12109 37.8506 7.93359L38.4351 8.54004C38.3354 8.68652 38.2007 8.82715 38.0308 8.96191C37.8638 9.09668 37.6616 9.20654 37.4243 9.2915C37.187 9.37354 36.9131 9.41455 36.6025 9.41455Z" fill="white"/>
<path d="M125.91 6.34473V8.83643C125.816 8.95654 125.668 9.08691 125.466 9.22754C125.267 9.36816 125.006 9.48975 124.684 9.59229C124.362 9.69189 123.966 9.7417 123.498 9.7417C123.09 9.7417 122.718 9.67432 122.381 9.53955C122.044 9.40186 121.754 9.20117 121.511 8.9375C121.268 8.67383 121.081 8.35156 120.949 7.9707C120.817 7.58984 120.751 7.15479 120.751 6.66553V6.24365C120.751 5.75439 120.812 5.31934 120.936 4.93848C121.062 4.55762 121.24 4.23535 121.472 3.97168C121.706 3.70801 121.986 3.50732 122.311 3.36963C122.639 3.23193 123.005 3.16309 123.41 3.16309C123.952 3.16309 124.397 3.25244 124.746 3.43115C125.097 3.60986 125.367 3.85596 125.554 4.16943C125.742 4.47998 125.859 4.8374 125.906 5.2417H124.728C124.696 5.01904 124.631 4.82422 124.535 4.65723C124.438 4.4873 124.3 4.35547 124.122 4.26172C123.946 4.16504 123.717 4.1167 123.436 4.1167C123.199 4.1167 122.989 4.16357 122.808 4.25732C122.626 4.35107 122.474 4.4873 122.351 4.66602C122.228 4.84473 122.134 5.06592 122.069 5.32959C122.008 5.59326 121.977 5.89502 121.977 6.23486V6.66553C121.977 7.0083 122.012 7.31299 122.083 7.57959C122.153 7.84326 122.254 8.06592 122.386 8.24756C122.521 8.42627 122.686 8.5625 122.882 8.65625C123.082 8.74707 123.307 8.79248 123.559 8.79248C123.788 8.79248 123.977 8.77344 124.126 8.73535C124.278 8.69434 124.4 8.646 124.491 8.59033C124.582 8.53467 124.652 8.48047 124.702 8.42773V7.22803H123.432V6.34473H125.91ZM129.584 8.64307V6.4502C129.584 6.28906 129.556 6.1499 129.5 6.03271C129.445 5.91553 129.36 5.82471 129.246 5.76025C129.131 5.6958 128.986 5.66357 128.811 5.66357C128.655 5.66357 128.519 5.68994 128.402 5.74268C128.288 5.79541 128.2 5.87012 128.138 5.9668C128.077 6.06055 128.046 6.16895 128.046 6.29199H126.881C126.881 6.0957 126.928 5.90967 127.022 5.73389C127.116 5.55518 127.249 5.39697 127.422 5.25928C127.598 5.11865 127.807 5.00879 128.05 4.92969C128.296 4.85059 128.572 4.81104 128.876 4.81104C129.237 4.81104 129.558 4.87256 129.839 4.99561C130.123 5.11572 130.346 5.29736 130.507 5.54053C130.671 5.78369 130.753 6.08984 130.753 6.45898V8.5332C130.753 8.77051 130.768 8.97412 130.797 9.14404C130.829 9.31104 130.876 9.45605 130.938 9.5791V9.65381H129.755C129.7 9.53369 129.657 9.38135 129.628 9.19678C129.599 9.00928 129.584 8.82471 129.584 8.64307ZM129.747 6.75781L129.755 7.44775H129.021C128.84 7.44775 128.68 7.4668 128.542 7.50488C128.405 7.54004 128.292 7.59277 128.204 7.66309C128.116 7.73047 128.05 7.8125 128.006 7.90918C127.962 8.00293 127.94 8.10986 127.94 8.22998C127.94 8.34717 127.967 8.45264 128.02 8.54639C128.075 8.64014 128.154 8.71484 128.257 8.77051C128.362 8.82324 128.485 8.84961 128.626 8.84961C128.831 8.84961 129.01 8.80859 129.162 8.72656C129.314 8.6416 129.433 8.53906 129.518 8.41895C129.603 8.29883 129.648 8.18457 129.654 8.07617L129.988 8.57715C129.947 8.69727 129.886 8.82471 129.804 8.95947C129.722 9.09424 129.616 9.22021 129.487 9.3374C129.358 9.45459 129.203 9.55127 129.021 9.62744C128.84 9.70361 128.629 9.7417 128.389 9.7417C128.081 9.7417 127.806 9.68018 127.562 9.55713C127.319 9.43408 127.127 9.26562 126.987 9.05176C126.846 8.83789 126.776 8.59473 126.776 8.32227C126.776 8.07031 126.823 7.84766 126.917 7.6543C127.01 7.46094 127.149 7.29834 127.334 7.1665C127.519 7.03174 127.747 6.93066 128.02 6.86328C128.295 6.79297 128.61 6.75781 128.964 6.75781H129.747ZM132.937 5.91406V9.65381H131.777V4.89893H132.867L132.937 5.91406ZM132.752 7.10498H132.41C132.413 6.75928 132.459 6.4458 132.55 6.16455C132.641 5.8833 132.769 5.6416 132.933 5.43945C133.1 5.2373 133.297 5.08203 133.526 4.97363C133.754 4.86523 134.009 4.81104 134.291 4.81104C134.519 4.81104 134.726 4.84326 134.91 4.90771C135.095 4.97217 135.253 5.07471 135.385 5.21533C135.52 5.35596 135.622 5.54053 135.692 5.76904C135.766 5.99463 135.802 6.27295 135.802 6.604V9.65381H134.633V6.59521C134.633 6.37842 134.601 6.20703 134.537 6.08105C134.475 5.95508 134.384 5.86572 134.264 5.81299C134.147 5.76025 134.002 5.73389 133.829 5.73389C133.65 5.73389 133.494 5.77051 133.359 5.84375C133.227 5.91406 133.116 6.01221 133.025 6.13818C132.937 6.26416 132.87 6.40918 132.823 6.57324C132.776 6.7373 132.752 6.91455 132.752 7.10498ZM139.85 4.89893H140.904V9.50879C140.904 9.93945 140.811 10.3042 140.623 10.603C140.438 10.9048 140.179 11.1333 139.845 11.2886C139.511 11.4468 139.123 11.5259 138.681 11.5259C138.49 11.5259 138.284 11.4995 138.061 11.4468C137.841 11.394 137.629 11.3105 137.424 11.1963C137.222 11.085 137.053 10.9399 136.918 10.7612L137.441 10.0757C137.6 10.2603 137.778 10.3994 137.978 10.4932C138.177 10.5898 138.392 10.6382 138.624 10.6382C138.858 10.6382 139.057 10.5942 139.221 10.5063C139.388 10.4214 139.516 10.2954 139.604 10.1284C139.694 9.96436 139.74 9.76221 139.74 9.52197V5.98438L139.85 4.89893ZM136.637 7.3335V7.24121C136.637 6.87793 136.681 6.54834 136.769 6.25244C136.857 5.95361 136.983 5.69727 137.147 5.4834C137.314 5.26953 137.515 5.104 137.749 4.98682C137.986 4.86963 138.253 4.81104 138.549 4.81104C138.862 4.81104 139.126 4.86816 139.34 4.98242C139.557 5.09668 139.735 5.25928 139.876 5.47021C140.02 5.68115 140.131 5.93164 140.21 6.22168C140.292 6.50879 140.355 6.8252 140.399 7.1709V7.42139C140.358 7.7583 140.292 8.06738 140.201 8.34863C140.113 8.62988 139.996 8.87598 139.85 9.08691C139.703 9.29492 139.521 9.45605 139.305 9.57031C139.088 9.68457 138.833 9.7417 138.54 9.7417C138.247 9.7417 137.983 9.68164 137.749 9.56152C137.515 9.44141 137.314 9.27295 137.147 9.05615C136.983 8.83936 136.857 8.58447 136.769 8.2915C136.681 7.99854 136.637 7.6792 136.637 7.3335ZM137.797 7.24121V7.3335C137.797 7.53857 137.818 7.73047 137.859 7.90918C137.9 8.08789 137.963 8.24609 138.048 8.38379C138.133 8.51855 138.24 8.62402 138.369 8.7002C138.498 8.77637 138.651 8.81445 138.83 8.81445C139.07 8.81445 139.267 8.76465 139.419 8.66504C139.574 8.5625 139.691 8.42334 139.771 8.24756C139.853 8.06885 139.905 7.86816 139.929 7.64551V6.95557C139.914 6.77979 139.882 6.61719 139.832 6.46777C139.785 6.31836 139.719 6.18945 139.634 6.08105C139.549 5.97266 139.441 5.8877 139.309 5.82617C139.177 5.76465 139.021 5.73389 138.839 5.73389C138.663 5.73389 138.509 5.77344 138.377 5.85254C138.246 5.92871 138.137 6.03564 138.052 6.17334C137.967 6.31104 137.903 6.4707 137.859 6.65234C137.818 6.83398 137.797 7.03027 137.797 7.24121ZM144.974 4.89893H146.028V9.50879C146.028 9.93945 145.935 10.3042 145.747 10.603C145.562 10.9048 145.303 11.1333 144.969 11.2886C144.635 11.4468 144.247 11.5259 143.805 11.5259C143.614 11.5259 143.408 11.4995 143.185 11.4468C142.965 11.394 142.753 11.3105 142.548 11.1963C142.346 11.085 142.177 10.9399 142.042 10.7612L142.565 10.0757C142.724 10.2603 142.902 10.3994 143.102 10.4932C143.301 10.5898 143.516 10.6382 143.748 10.6382C143.982 10.6382 144.181 10.5942 144.345 10.5063C144.512 10.4214 144.64 10.2954 144.728 10.1284C144.818 9.96436 144.864 9.76221 144.864 9.52197V5.98438L144.974 4.89893ZM141.761 7.3335V7.24121C141.761 6.87793 141.805 6.54834 141.893 6.25244C141.981 5.95361 142.107 5.69727 142.271 5.4834C142.438 5.26953 142.639 5.104 142.873 4.98682C143.11 4.86963 143.377 4.81104 143.673 4.81104C143.986 4.81104 144.25 4.86816 144.464 4.98242C144.681 5.09668 144.859 5.25928 145 5.47021C145.144 5.68115 145.255 5.93164 145.334 6.22168C145.416 6.50879 145.479 6.8252 145.523 7.1709V7.42139C145.482 7.7583 145.416 8.06738 145.325 8.34863C145.237 8.62988 145.12 8.87598 144.974 9.08691C144.827 9.29492 144.646 9.45605 144.429 9.57031C144.212 9.68457 143.957 9.7417 143.664 9.7417C143.371 9.7417 143.107 9.68164 142.873 9.56152C142.639 9.44141 142.438 9.27295 142.271 9.05615C142.107 8.83936 141.981 8.58447 141.893 8.2915C141.805 7.99854 141.761 7.6792 141.761 7.3335ZM142.921 7.24121V7.3335C142.921 7.53857 142.942 7.73047 142.983 7.90918C143.024 8.08789 143.087 8.24609 143.172 8.38379C143.257 8.51855 143.364 8.62402 143.493 8.7002C143.622 8.77637 143.775 8.81445 143.954 8.81445C144.194 8.81445 144.391 8.76465 144.543 8.66504C144.698 8.5625 144.815 8.42334 144.895 8.24756C144.977 8.06885 145.029 7.86816 145.053 7.64551V6.95557C145.038 6.77979 145.006 6.61719 144.956 6.46777C144.909 6.31836 144.843 6.18945 144.758 6.08105C144.673 5.97266 144.565 5.8877 144.433 5.82617C144.301 5.76465 144.145 5.73389 143.963 5.73389C143.787 5.73389 143.633 5.77344 143.501 5.85254C143.37 5.92871 143.261 6.03564 143.176 6.17334C143.091 6.31104 143.027 6.4707 142.983 6.65234C142.942 6.83398 142.921 7.03027 142.921 7.24121ZM149.904 8.52441V4.89893H151.073V9.65381H149.975L149.904 8.52441ZM150.054 7.54004L150.414 7.53125C150.414 7.85059 150.379 8.14502 150.309 8.41455C150.238 8.68408 150.128 8.91846 149.979 9.11768C149.833 9.31396 149.646 9.46777 149.421 9.5791C149.195 9.6875 148.929 9.7417 148.621 9.7417C148.387 9.7417 148.173 9.70947 147.979 9.64502C147.786 9.57764 147.619 9.47363 147.479 9.33301C147.341 9.18945 147.234 9.00635 147.158 8.78369C147.082 8.55811 147.043 8.28711 147.043 7.9707V4.89893H148.204V7.97949C148.204 8.1377 148.221 8.26953 148.256 8.375C148.294 8.48047 148.346 8.56689 148.41 8.63428C148.478 8.69873 148.555 8.74561 148.643 8.7749C148.734 8.80127 148.831 8.81445 148.933 8.81445C149.214 8.81445 149.436 8.75879 149.597 8.64746C149.761 8.5332 149.878 8.38086 149.948 8.19043C150.019 7.99707 150.054 7.78027 150.054 7.54004ZM154.721 8.64307V6.4502C154.721 6.28906 154.693 6.1499 154.637 6.03271C154.582 5.91553 154.497 5.82471 154.382 5.76025C154.268 5.6958 154.123 5.66357 153.947 5.66357C153.792 5.66357 153.656 5.68994 153.539 5.74268C153.424 5.79541 153.336 5.87012 153.275 5.9668C153.213 6.06055 153.183 6.16895 153.183 6.29199H152.018C152.018 6.0957 152.065 5.90967 152.159 5.73389C152.252 5.55518 152.386 5.39697 152.559 5.25928C152.734 5.11865 152.944 5.00879 153.187 4.92969C153.433 4.85059 153.708 4.81104 154.013 4.81104C154.374 4.81104 154.694 4.87256 154.976 4.99561C155.26 5.11572 155.482 5.29736 155.644 5.54053C155.808 5.78369 155.89 6.08984 155.89 6.45898V8.5332C155.89 8.77051 155.904 8.97412 155.934 9.14404C155.966 9.31104 156.013 9.45605 156.074 9.5791V9.65381H154.892C154.836 9.53369 154.794 9.38135 154.765 9.19678C154.735 9.00928 154.721 8.82471 154.721 8.64307ZM154.883 6.75781L154.892 7.44775H154.158C153.977 7.44775 153.817 7.4668 153.679 7.50488C153.542 7.54004 153.429 7.59277 153.341 7.66309C153.253 7.73047 153.187 7.8125 153.143 7.90918C153.099 8.00293 153.077 8.10986 153.077 8.22998C153.077 8.34717 153.104 8.45264 153.156 8.54639C153.212 8.64014 153.291 8.71484 153.394 8.77051C153.499 8.82324 153.622 8.84961 153.763 8.84961C153.968 8.84961 154.146 8.80859 154.299 8.72656C154.451 8.6416 154.57 8.53906 154.655 8.41895C154.74 8.29883 154.785 8.18457 154.791 8.07617L155.125 8.57715C155.084 8.69727 155.022 8.82471 154.94 8.95947C154.858 9.09424 154.753 9.22021 154.624 9.3374C154.495 9.45459 154.34 9.55127 154.158 9.62744C153.977 9.70361 153.766 9.7417 153.525 9.7417C153.218 9.7417 152.942 9.68018 152.699 9.55713C152.456 9.43408 152.264 9.26562 152.124 9.05176C151.983 8.83789 151.913 8.59473 151.913 8.32227C151.913 8.07031 151.959 7.84766 152.053 7.6543C152.147 7.46094 152.286 7.29834 152.471 7.1665C152.655 7.03174 152.884 6.93066 153.156 6.86328C153.432 6.79297 153.747 6.75781 154.101 6.75781H154.883ZM158.074 5.91406V9.65381H156.914V4.89893H158.003L158.074 5.91406ZM157.889 7.10498H157.546C157.549 6.75928 157.596 6.4458 157.687 6.16455C157.778 5.8833 157.905 5.6416 158.069 5.43945C158.236 5.2373 158.434 5.08203 158.663 4.97363C158.891 4.86523 159.146 4.81104 159.427 4.81104C159.656 4.81104 159.862 4.84326 160.047 4.90771C160.231 4.97217 160.39 5.07471 160.521 5.21533C160.656 5.35596 160.759 5.54053 160.829 5.76904C160.902 5.99463 160.939 6.27295 160.939 6.604V9.65381H159.77V6.59521C159.77 6.37842 159.738 6.20703 159.673 6.08105C159.612 5.95508 159.521 5.86572 159.401 5.81299C159.284 5.76025 159.139 5.73389 158.966 5.73389C158.787 5.73389 158.63 5.77051 158.496 5.84375C158.364 5.91406 158.252 6.01221 158.162 6.13818C158.074 6.26416 158.006 6.40918 157.959 6.57324C157.913 6.7373 157.889 6.91455 157.889 7.10498Z" fill="white"/>
</svg>
