<svg xmlns="http://www.w3.org/2000/svg" viewBox="0 0 559 617"><defs><style>.cls-1{fill:#fff;}</style></defs><g id="Layer_2" data-name="Layer 2"><g id="Layer_1-2" data-name="Layer 1"><rect class="cls-1" x="57" y="513" width="47" height="47"/><rect class="cls-1" x="113.97" y="513" width="47" height="47"/><rect class="cls-1" x="113.97" y="456" width="47" height="47"/><rect class="cls-1" x="113.97" y="570" width="47" height="47"/><rect class="cls-1" x="170.57" y="513" width="47" height="47"/><rect class="cls-1" x="170.57" y="456" width="47" height="47"/><rect class="cls-1" x="170.57" y="399" width="47" height="47"/><rect class="cls-1" x="227.34" y="399" width="47" height="47"/><rect class="cls-1" x="170.57" y="570" width="47" height="47"/><rect class="cls-1" x="227.34" y="513" width="47" height="47"/><rect class="cls-1" x="227.34" y="570" width="47" height="47"/><rect class="cls-1" x="284.27" y="513" width="47" height="47"/><rect class="cls-1" x="284.27" y="570" width="47" height="47"/><rect class="cls-1" x="341.15" y="570" width="47" height="47"/><rect class="cls-1" x="341.15" y="513" width="47" height="47"/><rect class="cls-1" x="398.06" y="513" width="47" height="47"/><rect class="cls-1" x="398.06" y="456" width="47" height="47"/><rect class="cls-1" x="455" y="456" width="47" height="47"/><rect class="cls-1" x="455" y="513" width="47" height="47"/><rect class="cls-1" x="57" y="228" width="47" height="47"/><rect class="cls-1" x="113.97" y="228" width="47" height="47"/><rect class="cls-1" x="170.57" y="228" width="47" height="47"/><rect class="cls-1" x="227.34" y="228" width="47" height="47"/><rect class="cls-1" x="284.27" y="228" width="47" height="47"/><rect class="cls-1" x="341.15" y="228" width="47" height="47"/><rect class="cls-1" x="57" y="171" width="47" height="47"/><rect class="cls-1" x="113.97" y="171" width="47" height="47"/><rect class="cls-1" x="170.57" y="171" width="47" height="47"/><rect class="cls-1" x="113.97" y="114" width="47" height="47"/><rect class="cls-1" x="170.57" y="114" width="47" height="47"/><rect class="cls-1" x="227.34" y="171" width="47" height="47"/><rect class="cls-1" x="284.27" y="171" width="47" height="47"/><rect class="cls-1" x="341.15" y="171" width="47" height="47"/><rect class="cls-1" x="113.97" y="57" width="47" height="47"/><rect class="cls-1" x="170.57" y="57" width="47" height="47"/><rect class="cls-1" x="227.34" y="57" width="47" height="47"/><rect class="cls-1" x="284.27" y="57" width="47" height="47"/><rect class="cls-1" x="341.15" y="57" width="47" height="47"/><rect class="cls-1" x="398.06" y="57" width="47" height="47"/><rect class="cls-1" x="170.57" width="47" height="47"/><rect class="cls-1" x="227.34" width="47" height="47"/><rect class="cls-1" x="284.27" width="47" height="47"/><rect class="cls-1" x="341.15" width="47" height="47"/><rect class="cls-1" x="398.06" width="47" height="47"/><rect class="cls-1" x="455" width="47" height="47"/><rect class="cls-1" x="398.06" y="228" width="47" height="47"/><rect class="cls-1" x="455" y="228" width="47" height="47"/><rect class="cls-1" x="512" y="456" width="47" height="47"/><rect class="cls-1" x="455" y="399" width="47" height="47"/><rect class="cls-1" x="512" y="399" width="47" height="47"/><rect class="cls-1" x="455" y="342" width="47" height="47"/><rect class="cls-1" x="512" y="342" width="47" height="47"/><rect class="cls-1" x="455" y="285" width="47" height="47"/><rect class="cls-1" x="398.06" y="285" width="47" height="47"/><rect class="cls-1" x="57" y="285" width="47" height="47"/><rect class="cls-1" y="285" width="47" height="47"/><rect class="cls-1" x="512" y="285" width="47" height="47"/></g></g></svg>