<svg xmlns="http://www.w3.org/2000/svg" viewBox="0 0 413.2 672.02"><defs><style>.cls-1{fill:#fff;}</style></defs><g id="Layer_2" data-name="Layer 2"><g id="Layer_1-2" data-name="Layer 1"><path class="cls-1" d="M407,185.83c-.3-1.77-.68-3.5-1-5.23-.22-1-.43-1.89-.64-2.87s-.42-1.93-.63-2.86c-.51-2.24-1-4.47-1.52-6.66-.63-2.58-1.3-5.15-1.94-7.68,0,0,0,0,0-.08-.72-2.79-1.52-5.61-2.32-8.44-.25-1-.55-1.94-.84-2.91s-.63-2.11-1-3.16c-1.31-4.26-2.66-8.52-4.09-12.69-1.1-3.16-2.24-6.28-3.38-9.41-.33-.92-.67-1.85-1.05-2.78-.51-1.35-1-2.74-1.6-4.09-1.65-4.13-3.33-8.18-5.06-12.18-.42-.89-.8-1.77-1.22-2.66s-.76-1.73-1.19-2.57a.65.65,0,0,0-.08-.26c-.38-.8-.76-1.64-1.18-2.44-2-4.39-4.18-8.69-6.41-13-.46-.84-.93-1.68-1.35-2.49s-.93-1.68-1.39-2.53c-.72-1.26-1.43-2.57-2.19-3.87-.34-.6-.68-1.19-1-1.73-1.26-2.24-2.61-4.39-3.92-6.54-.38-.63-.76-1.22-1.14-1.85q-2.52-4-5.18-7.85c-.59-.84-1.18-1.73-1.82-2.57-.46-.72-1-1.39-1.43-2.07s-.8-1.13-1.22-1.68c-.68-.89-1.31-1.77-2-2.62s-1.48-1.94-2.2-2.91c-.63-.75-1.22-1.51-1.85-2.27-1-1.27-2-2.49-3-3.67-.67-.8-1.35-1.6-2-2.36-.76-.93-1.56-1.77-2.32-2.66-1.31-1.43-2.61-2.83-3.92-4.22-.46-.46-.93-.92-1.35-1.39l-2-2C310.31,8.05,284.67,3.16,272.57,0V0c.55.38,10.2,7.55,24,21,.51.47,1,1,1.48,1.48C315,39.3,337.51,49.93,356.78,84.88c-.34,4.94-.76,7.68-.76,7.68l-4,6.53c-19.27,18.35-37,63.42-37,63.42s-3.5,10.5-8.73,7.47,3.45-31.71,3.45-31.71c-4.17,9.57-16.61,11.59-25,20.41s-7.72,32.46-7.72,32.46c16.15,9.07,28.47,47.57,28.47,47.91,0,0,5.9-7.51,5.18-25.43s-5.06-26.48,11.47-17.37,24,26.65,18.73,28.5c1.39-.42,46.72-14,46-64.3a305.47,305.47,0,0,1,6.62,33.73c.08.72.21,1.39.29,2.11l.76,6.32c4.6-4.34,9-8.81,13-13.4-.21-1.14-.42-2.28-.67-3.38M359.56,150c-6.07,10.92-26.73,10-30.65,5.1s6.74-18.47,6.74-18.47L350.45,112s8.18-15.6,16.36-8c14.8,16.45-1.18,35.05-7.25,46"/><path class="cls-1" d="M309.64,252S332.4,295.29,335.55,328c0,0,2.88-47.48-21.81-79.66,0,0-5.72-3.77-4.1,3.72"/><path class="cls-1" d="M413.2,266.37c-34.07,48.41-79.66,77.76-79.66,77.76l-6.15-28C334.6,479,250.26,534.68,247.73,536.33h0l0,0c-17.5,18.3-27.79,21.67-33.48,21a53.34,53.34,0,0,0-7.38-.34c-15.18-6.49-7.38-68.82-28.88-192.49s0-146.24,0-146.24c-23.66-2.15-59.17,17.21-71.9,33.73-1.94,3.59-3.8,7.22-5.57,11v.08a240,240,0,0,0-21,69.28c-5-40.44,21.38-84,21.38-84-57.77,26.65-81.51-42.75-82-44.06.34-3.33.72-6.66,1.22-10.08a294.22,294.22,0,0,1,7.09-35.46c-.47,12.78,7.67,46.17,7.67,46.17l37.66,19.53c-4.14-2.91,3.45-19.44,19.31-28.17,16.49-9.11,12.14-.55,11.43,17.37s5.18,25.43,5.18,25.43c0-.34,12.32-38.84,28.47-47.9,0,0,.67-23.66-7.68-32.47s-20.83-10.84-25-20.41c0,0,8.68,28.63,3.45,31.71s-8.72-7.47-8.72-7.47-17.46-47-36.69-65.31l-4.3-4.3s-.34-3.55-.76-8.65c35-63.33,80.92-83,83.74-84.21C128.78,3.21,103.23,8.1,83.16,26.61,5.53,103.4-23.82,275.94,21.3,340,69.66,424.63,45.58,468,44,470.71c26.48-37.44,6.66-80.54-10-137.29C49.17,349.23,69.79,358.25,77,361c-1.27,43.3,8.26,92.13,33.73,146,70.59,111.37,75.86,163.23,96.1,164.92a9.3,9.3,0,0,0,1.05,0c21.09,0,25.39-51.7,97.16-165,25.55-54.06,35-103,33.69-146.44,7.76-3.12,26.23-11.56,40.52-25.81-16.57,56.08-35.84,98.75-9.61,135.9C368,468,344,424.63,392.33,340c12.43-17.66,19.22-43.64,20.87-73.58M47.19,104c8.18-7.64,16.36,8,16.36,8l14.8,24.62s10.71,13.62,6.79,18.47-24.63,5.82-30.7-5.1-22-29.52-7.25-46"/><path class="cls-1" d="M141.05,120.81s-6.66,30.78,0,49.17,8.22,11.09,12,9.78c0,0-12.86-41.49-11.93-58.95"/><path class="cls-1" d="M273,120.81c.93,17.46-11.89,58.95-11.89,58.95,3.75,1.31,5.35,8.6,12-9.78s-.08-49.17-.08-49.17"/></g></g></svg>