<?xml version="1.0" encoding="utf-8"?>
<!-- Generator: Adobe Illustrator 25.4.1, SVG Export Plug-In . SVG Version: 6.00 Build 0)  -->
<svg version="1.1" id="Layer_1" xmlns="http://www.w3.org/2000/svg" xmlns:xlink="http://www.w3.org/1999/xlink" x="0px" y="0px"
	 viewBox="0 0 800 800" style="enable-background:new 0 0 800 800;" xml:space="preserve">
<style type="text/css">
	.st0{fill-rule:evenodd;clip-rule:evenodd;fill:#FFFFFF;}
</style>
<path class="st0" d="M738.6,277.4c-2.5-10-10.3-18.4-23.3-25c-13-6.6-29.7-9.9-50.2-9.9c-18.7,0-35.3,3-49.9,9.1
	c-14.5,6.1-25.9,14.4-34.1,25.2c-7.8,10.1-14,25.8-18.9,47h-49.9c-7.1,0.2-12.7,6.1-12.5,13.2c0.2,6.8,5.7,12.3,12.5,12.5h45.9
	c-0.4,6-0.1,12,0.9,17.9c2,10.4,5.5,18.5,10.6,24.3c2.4,2.7,5,5.3,7.8,7.7H549c-7.1-0.2-13,5.4-13.2,12.5c-0.2,7.1,5.4,13,12.5,13.2
	c0.2,0,0.5,0,0.7,0h60.3c12.9,10.2,21,17.6,24.3,22.3c3.7,5.5,3.6,17.1-0.2,35c-1.7,8.1-4.3,14.2-7.7,18.4c-3.1,4-7.9,6.3-13,6.2
	c-5.2,0-8.6-1.6-9.9-4.9s-0.8-10.5,1.6-21.9l7.9-36.9h-37c-0.3,0-0.5-0.1-0.8-0.1h-105c-7.1-0.2-13,5.4-13.2,12.5
	c-0.2,7.1,5.4,13,12.5,13.2c0.2,0,0.5,0,0.7,0h64.1c-3.9,19.9-4.9,35.5-3.2,46.7c1.9,12.4,9.5,22.5,22.7,30.5s30.4,12,51.4,12
	c19.2,0,36.8-3.5,52.8-10.4c16-6.9,27.6-15.5,34.8-25.7c7.2-10.2,13.2-26.1,17.8-47.7c6.4-29.7,6.4-51.2,0.2-64.5
	c-6.2-13.3-24.7-30.5-55.3-51.4c-10.7-7.2-16.8-13.4-18.3-18.5c-1.6-5.1-1.4-12.7,0.8-22.8c1.7-7.9,4.2-13.8,7.4-17.6
	c2.9-3.7,7.3-5.8,12-5.8c4.4,0,7.2,1.4,8.4,4.3s0.8,9.5-1.5,20l-4.8,22.5h73.2l2.6-12C739.8,304.5,741.2,287.4,738.6,277.4z"/>
<path class="st0" d="M522.8,366.9h-72.6l12.4-57.5h78.6l13-60.6H442.4c-17.1,0-130.9-0.4-141.6,0c-6.9,0.2-11.6,5.6-12.3,12.3
	c-0.7,6.7,3,11.6,9.8,13.3c3.3,0.8,6.6,1.2,10,1.3c7.5,0.2,15-0.1,22.5,0c6,0.1,10,3.2,12.1,8.8c3.9,10.4-2.9,19.6-14.6,19.6
	c-39.2,0.1-78.4,0.1-117.7,0.1c-8.6,0-13.5,4.9-13.6,13c-0.1,8.4,4.6,13.1,13.3,13.2c10.5,0.1,21,0,31.6,0
	c39.6,0,79.2,0.1,118.7,0.1c5.6,0,10.8,0.9,14.1,5.9c3.1,4.5,3.5,10.4,1,15.2c-2.6,5.4-7.4,7.6-13.1,7.6c-9.2,0.1-18.5,0-27.8,0.1
	c-10.5,0-21-0.3-31.5,0.2c-9.5,0.5-13.7,5.6-13,14.6c0.5,6.8,5,10.9,13.7,11.5c6,0.4,12.1,0.2,18.2,0.2c10.3,0,16.4,5.2,16.4,14.1
	c0.1,8.8-5.6,15.1-15.5,15.1c-45.6,0.2-91.3-0.1-136.9,0c-36.3,0.1-72.7,0-109.1,0c-4.8,0-8.9,1-11.5,5.3s-3.2,8.9-0.8,13.6
	c2.7,5.2,7.3,7.2,12.5,7.2c30.1,0.3,60.2-0.1,90.3,0c58.3,0.1,116.6,0,174.9,0c10.3,0,16.4,6.4,15.3,16c-0.8,7.9-6.5,12.5-15.7,12.5
	c-46,0-92,0-138,0.1c-10.3,0-15.4,4.6-15.3,13.6c0.1,8.5,5.1,12.7,15.4,12.8c14.6,0,29.2,0,43.8,0c16.9,0,33.9,0,50.8,0.1
	c8.2,0.1,13.7,4,15.2,10.8c2.3,10.2-4,18-14.6,18.2c-13.7,0.2-27.4,0.1-41.2,0c-5,0-9.1,1.4-11.8,5.9c-2.8,4.7-2.6,9.5-0.2,14.3
	s7,6.2,12.1,6.2c26.9,0,53.7,0,80.6,0l0,0h71.5l24.8-115.7h0.3l0.1-1.6l2.1-9.9h72.6L522.8,366.9z"/>
<path class="st0" d="M269,386.2c7.4,0.2,13.5-5.6,13.7-13c0.2-7.4-5.6-13.5-13-13.7c-0.2,0-0.5,0-0.7,0h-25.3
	c-7.4-0.2-13.5,5.6-13.7,13c-0.2,7.4,5.6,13.5,13,13.7c0.2,0,0.5,0,0.7,0H269z"/>
</svg>
