<?xml version="1.0" encoding="utf-8"?>
<!-- Generator: Adobe Illustrator 16.0.0, SVG Export Plug-In . SVG Version: 6.00 Build 0)  -->
<!DOCTYPE svg PUBLIC "-//W3C//DTD SVG 1.1//EN" "http://www.w3.org/Graphics/SVG/1.1/DTD/svg11.dtd">
<svg version="1.1" id="Layer_1" xmlns="http://www.w3.org/2000/svg" xmlns:xlink="http://www.w3.org/1999/xlink" x="0px" y="0px"
	 width="229.833px" height="255.796px" viewBox="58.976 59.004 229.833 255.796"
	 enable-background="new 58.976 59.004 229.833 255.796" xml:space="preserve">
<g>
	<path fill="#FFFFFF" d="M197.896,165.123c1.092,1.148,2.802,2.829,5.041,3.417c1.148,0,2.297,0.532,3.39,0c0,0-0.562-2.801,0-5.098
		c0-0.531,0.588-1.736,0.588-1.736s-1.147-0.532-2.828-0.532c-1.147,0-2.239,0-3.389,0s-2.241,0.532-2.802,0.532
		c-0.588,0-1.147,0.588-1.147,0.588l0,0C196.749,162.294,196.749,163.442,197.896,165.123L197.896,165.123z"/>
	<path fill="#FFFFFF" d="M211.425,174.729c1.681,0.532,2.828,1.121,3.39,1.121c0-0.589-0.562-0.589-0.562-1.121
		c-1.147-3.361-0.56-6.777-0.56-6.777c-3.979-1.148-6.778-0.561-7.928,0.588C206.327,171.901,209.156,173.638,211.425,174.729z"/>
	<path fill="#FFFFFF" d="M275.814,231.193c-1.147,0-1.766,0-2.83-0.532c-3.947-0.588-7.926-0.588-12.463-0.588
		c-1.625,0-2.828,0-4.426,0.588c-1.231,0-2.296,0.532-3.443,0.532c-9.579,2.297-20.307,5.656-34.395,18.064
		c-1.765,2.27-4.006,4.48-6.834,6.246c-1.709,0.531-3.389,1.652-5.098,1.652c-2.24,0-4.48,0-7.338-1.121l0,0
		c-0.532,0.533-1.092,0.533-1.682,1.121l0,0c0,0,0,0-0.56,0c0,0,0,0-0.589,0c-1.094,0.615-1.652,1.148-3.36,1.68l0,0
		c-1.121,0.533-1.681,0.533-2.829,1.148l0,0c-1.119,0-2.24,0.617-3.39,0.617l0,0c-0.56,0-1.681,0-2.24,0c0,0,0,0-0.588,0
		c-0.562,0-1.681,0-2.241,0c0,0,0,0-0.56,0c-1.148,0-1.709-0.617-2.829-0.617l0,0c-0.561,0-1.148,0-1.708-0.615l0,0
		c-1.093-0.533-2.241-0.533-2.829-1.064c0,0,0,0-0.561,0c-0.56,0-0.56-0.533-1.148-0.533c-0.532,0-0.532,0-1.092-0.614
		c-1.148-0.589-2.241-1.121-3.389-1.652c0,0-0.561,0-0.561-0.562c-0.588,0-0.588-0.588-1.148-0.588c-0.588,0-0.588-0.616-1.12-0.616
		c-0.561-0.531-1.12-0.531-1.709-1.063c-0.56-0.615-1.092-1.148-2.24-1.736c0,0-0.561,0-0.561-0.561l0,0l-0.588-0.531
		c-0.561-0.589-1.681-1.205-2.24-1.736c-0.561-0.532-1.148-0.532-1.709-1.064l-0.532-0.615l0,0l0,0c0,0,0,0,0-0.588l-0.588-0.561
		l-0.561-0.533c0,0,0-0.531-0.56-0.531l-0.588-0.589c0,0,0,0-0.561-0.616c0-0.531-0.561-0.531-0.561-1.063c0,0,0,0,0-0.56
		c0-0.59-0.56-0.59-0.56-1.205l0,0c0-0.532-0.56-1.063-0.56-1.063l0,0c-0.56-0.616-0.56-1.147-1.148-1.735l0,0
		c-1.092-2.298-2.241-4.511-3.389-7.312l0,0c-2.801-6.777-5.041-15.769-5.041-24.897l0,0c0-2.214,0.56-5.043,1.092-7.312l0,0
		c0.56-1.681,0.56-2.828,1.148-4.511l0,0c0.561-2.268,1.681-5.098,2.801-7.364l0,0c1.148-1.681,1.708-3.361,3.389-5.042l0,0
		c0.588,1.148,1.148,1.681,1.708,2.829c0.56,1.147,1.681,2.213,2.269,2.801c1.12,1.147,1.708,2.239,2.801,3.444
		c0.588,0.531,0.588,0.531,1.148,1.064c0.56,0.531,1.68,1.148,2.24,2.268l0,0c2.297,2.298,4.537,3.979,7.366,6.19l0,0v2.269
		l0.561,10.728l0,0l0,0l0,0c0,1.765,0,3.978,0.56,5.658c0.588,2.801,1.12,5.629,1.681,8.458c1.708,6.218,5.098,11.848,9.606,16.973
		c0,0,0,0.59,0.561,0.59l0,0c0.56,0.53,1.708,1.623,2.269,2.211l0,0l0,0c1.121,0.616,1.682,1.682,2.83,2.213l0,0
		c1.119,0.617,1.68,1.205,2.828,1.736h0.561c1.121,0.561,2.24,1.148,3.389,1.682c0.533,0,0.533,0,1.121,0.615
		c1.12,0.532,1.708,1.063,2.828,1.063c1.121,0.616,2.829,1.205,4.51,1.766c-5.07-2.297-9.607-5.657-12.408-9.075
		c-1.147-1.146-1.707-2.211-2.295-3.416c-5.071-7.311-6.19-16.356-6.779-22.015c0-1.063,0-2.271,0-2.801c0-2.297,0-3.894,0-4.511
		c7.367,3.418,13.557,3.418,18.094,2.214c1.147,0,1.708-0.532,2.801-0.532c5.099-1.682,8.486-5.098,10.166-6.777
		c1.709-0.589,3.39-1.681,5.099-2.802c1.121-1.147,2.269-2.213,2.828-3.444c0-0.531,0.616-0.531,0.616-1.063s0-0.532,0.531-1.147
		c0-0.589,0-1.682,0-2.27l0,0l0,0c2.801-2.213,4.481-5.629,3.334-10.671c0.562-3.417-0.533-6.246-1.651-8.515
		c-0.617-1.148-1.148-2.213-1.683-2.828c-0.531-1.121-1.147-1.682-1.147-1.682c0,0.561,0,1.093,0,1.682c0,0.615,0,1.148,0,1.68
		c0,0.532,0,0.532,0,1.148c-1.147,7.898-3.39,12.939-3.949,15.236c0,0.532,0,0.532,0,1.121c0-0.589,0-0.589,0-1.121
		c0-8.989-3.39-13.556-5.068-15.236c-0.588-0.616-1.148-0.616-1.148-0.616c-2.828,6.863-6.777,11.343-9.019,13.556
		c0-1.064,0-2.213,0-2.801c0-1.092,0-1.624-0.56-2.24c-0.59-2.27-1.148-3.949-1.737-5.098c-1.093-1.652-2.24-2.801-2.24-2.801
		s0,0-0.562,0.588c-0.56,0.561-1.146,1.093-2.239,2.213l-0.589,0.615c-0.561,0.532-1.68,1.682-2.24,2.213
		c-1.148,1.147-1.709,1.682-2.855,2.886l0,0c0,0,2.295-5.714-2.802-14.144c-0.562,0.588-0.562,0.588-1.121,1.119
		c-0.56,0.561-0.56,0.561-1.148,1.093c-1.12,0.589-2.801,1.737-5.041,2.801c-1.148,0.616-1.736,0.616-2.856,1.204
		c0-0.588,0-0.588,0-1.204c0-1.063,0-2.212,0-2.801c0.56-2.829,0.56-5.657,0.56-5.657s-0.56,0.616-1.148,1.148
		c-0.532,0.615-1.68,1.148-2.801,1.68c-1.68,1.205-3.389,3.418-3.977,4.033c-0.532-0.615-0.532-1.204-1.093-1.736l0,0
		c-1.708-3.361-3.389-6.777-5.098-10.223c-1.12-2.801-2.24-6.162-2.828-8.99c-0.561-1.652-0.561-2.801-1.093-4.537
		c0-1.093-0.588-2.213-0.588-3.361c0.588,0.532,1.681,1.148,2.269,2.269c2.24,1.681,4.51,2.829,7.338,3.978
		c2.829,1.12,5.069,1.652,7.87,2.213c1.148,0.588,2.857,0.588,3.978,0.588s2.269,0,3.389,0h0.561c1.148,0.531,2.27,1.148,2.829,1.68
		c1.12,0.533,2.802,1.148,4.509,1.148c0.588,0,0.588,0,1.148,0c0,0,0.561,0.588,1.121,0.588c0.56,0.561,1.119,0.561,1.708,1.093
		c0.56,0.532,1.681,1.12,2.801,1.12c0.588,0,1.147,0.617,1.708,0.617c1.121,0,1.682,0.531,2.829,0.531c0,0,0,0,0-0.531
		c0-0.617,0-1.205-0.56-2.27c-0.59-1.764-0.59-3.445-1.148-4.564c0-0.561-0.589-1.093-0.589-1.093c-0.532-0.589-2.802,0-7.87,2.829
		c-0.561-0.617-0.561-1.148-1.148-2.297c-0.561-1.652-1.707-2.801-1.707-4.537c0,0-1.094-0.561-2.802,1.204
		c-0.562,0.532-1.681,1.063-2.27,2.212h-0.56h-0.561l-3.389-0.531c-1.12-0.617-2.829-0.617-3.978-1.148
		c-2.801-0.532-5.041-1.736-7.31-2.829c-2.269-1.12-4.51-2.801-6.778-4.565c-0.56-0.532-1.708-1.68-2.269-2.212
		c-0.532-0.588-1.681-1.681-2.24-2.801l-0.588-0.616l-2.801-5.098c1.12,1.205,2.241,2.297,4.509,2.829
		c1.12,0.588,2.829,0.588,3.949,0.588c0,0,0,0.616,0.56,0.616c0.561,0.532,1.148,1.681,2.27,2.213
		c2.269,1.68,4.509,3.417,6.218,3.949c-1.709-6.778,1.147-8.458,2.801-10.727l0,0l0,0l0,0c0,5.097,2.828,9.579,4.537,11.259
		c0-1.68,0.588-3.893,1.12-5.629c0.561-1.681,1.12-3.361,1.708-5.098c0.561-1.596,1.093-2.801,1.681-3.361l0,0
		c1.709,7.394,6.19,14.704,7.897,15.853c0-3.445,1.709-8.458,2.271-10.195c0.56-1.681,0.56-2.297,0.56-5.098c0,0,0,0,0.561,0
		c1.147,2.801,4.537,9.047,6.219,12.996c0.561,1.148,0.561,1.737,1.148,2.296c0.56-0.56,1.092-1.148,2.239-1.765
		c4.511-5.013,5.63-11.259,5.63-14.62c1.147,10.139,4.536,19.186,6.245,22.015c2.24-1.736,4.481-4.565,6.777-7.395
		c0.532-0.532,1.063-1.68,1.682-2.212c1.119-1.681,2.802-3.417,3.949-5.098h0.531c0,1.148,0.616,3.417,0.616,6.246
		c0,1.064,0,2.269,0,2.829c0,0.532,0,1.064,0,1.681c0,1.652,0,2.801-0.616,3.949l0,0c1.147-0.532,2.297-1.736,4.032-2.829
		c2.213-1.736,4.427-4.565,6.162-7.366l0,0l0,0c0,0,0,0,0.532,0l0,0l0,0c0,0.588,0,1.737,0.532,3.417
		c0.615,3.417,0.615,9.047,0.615,11.259c3.418-2.212,7.927-6.217,10.14-14.676c0,0,0,0,0-0.532c2.802-1.681,3.417-3.361,3.417-5.098
		v-0.56c0,0.56-3.949,1.092-4.51,1.092c5.098-2.213,9.607-5.63,12.436-10.139c0,0,0.588-0.532,0.588-1.148
		c1.625-2.269,2.83-4.481,3.361-6.694c1.064-2.829,2.27-5.714,2.801-8.515c0-0.616,0-0.616,0-1.148c0-1.064,0.562-1.68,0.562-2.829
		c1.12-4.481,1.735-8.991,1.735-13.556c0-2.801,0-6.162-0.615-8.991c-0.532-2.801-1.12-5.629-1.682-8.43
		c-1.119-2.885-1.736-5.714-3.332-8.542c-0.617-0.588-1.205-1.121-1.205-1.681c-0.561-0.532-1.092-1.12-1.625-1.736
		c-1.203-1.064-2.268-2.213-3.416-3.361c-1.681-1.121-3.418-1.653-5.713-1.653c0,0-1.598,0-2.214,0.532c0,0-0.588,0-0.588,0.588
		l-0.532,0.532c-0.561,0.56-1.092,1.148-2.297,1.148c-2.213,1.681-4.48,3.949-6.162,6.246c-1.147,1.064-1.764,2.212-2.828,3.361
		c-1.147,1.12-1.735,2.269-2.269,3.333l0,0l-0.532,0.616c-0.561,0.616-1.148,0.616-1.765,1.148c-1.597,1.064-3.894,2.269-5.63,2.801
		c-1.064,0.56-2.268,1.092-3.361,1.092c-8.486,2.801-19.186,4.565-32.74,2.269c1.68,1.148,3.949,2.296,6.217,2.829
		c0.562,0,1.683,0.588,2.242,0.588c1.147,0,1.68,0.532,2.828,1.148c1.148,0.532,1.709,1.681,1.709,2.829
		c0,1.064-0.561,2.269-0.561,3.333c-0.588,1.148-1.148,1.764-1.736,2.296c-0.561,0.532-1.652,1.064-2.24,1.681
		c-1.682,0.588-3.949,1.12-5.631,1.12c-1.708,0-2.828,0-4.537-0.532c0.588,1.681,0.588,3.361,0,5.098
		c0,1.092-0.561,1.625-1.119,2.829l0,0c-2.83,4.425-9.047,5.042-13.557,2.829c-0.589-0.616-1.121-0.616-1.681-1.232
		c-1.148-1.064-2.241-2.801-2.829-4.425l0,0c0-0.588-0.56-1.205-0.56-1.736c0-1.148,0-2.829,0-3.949c0,0,0-0.616,0-1.148
		c-1.148,0.532-2.297,1.148-2.829,1.736c-0.561,0.532-1.12,1.092-1.709,2.213c-1.092,1.68-1.68,3.417-2.24,5.097v0.616
		c0,1.597,0,3.361,0,5.042c0,1.652,0.561,2.801,1.148,4.481c-0.588-1.064-1.148-2.213-1.709-3.361
		c-0.588-1.121-0.588-2.269-1.148-3.333c0-0.616,0-1.765,0-2.297c0-3.361,1.709-7.366,3.949-9.663
		c0.589-0.532,1.148-1.064,1.709-1.597c0.532-0.616,1.681-1.204,2.829-1.764l1.147-0.532l0,0c0.532,0,1.093-0.532,1.093-0.532
		c1.148,0,1.708-0.616,2.829-0.616c3.949-0.588,7.338,1.681,10.167,2.829c2.801,1.148,6.219,1.681,9.046,1.681
		c1.681,0,2.829,0,3.949-0.532c1.121-0.532,2.271-1.736,2.829-2.296c0.531-0.532,0.531-1.064,0.531-1.681
		c0-0.588,0-0.588-0.531-1.12c-0.561-1.092-2.297-1.092-3.949-1.681c-2.829-1.148-5.656-2.829-7.365-5.713
		c-0.562-0.532-1.709-1.597-2.802-2.213c-2.829-1.68-6.218-3.949-10.167-3.949c-0.588,0-1.148,0-1.708,0
		c-2.829,0.532-6.218,2.269-8.459,3.949c-1.148,0.616-1.708,1.148-2.24,2.213c-2.297,2.296-3.978,5.097-5.098,7.394
		c-1.681,5.629-4.537,12.996-18.653,16.356c-1.121-1.064-3.921-3.361-7.31-5.629c-1.148-0.532-1.708-1.148-2.829-2.269
		c-14.116-8.99-39.547-19.185-68.899,0.588c9.019,2.829,27.671,7.842,40.667,34.422c0.561,0.532,0.561,1.736,1.121,2.269
		c-1.121,1.68-4.537,7.926-6.778,17.533c-1.121,4.48-1.681,9.578-2.269,15.208c0,1.148,0,1.681,0,2.829
		c0,5.098,0.588,10.727,1.148,16.355c1.121,5.098,2.241,10.756,3.949,16.385c0,0.533-0.588,1.147-1.148,1.735
		c-2.24,2.83-6.218,8.991-5.041,15.236c1.092,0,2.801,0,4.481,0.532c1.121,0.615,2.297,0.615,2.801,1.148
		c0.588,0.531,1.736,1.119,1.736,1.68c-1.148,0.588-1.736,0.588-2.24,0.588c-1.176,0.533-2.857,1.094-3.417,1.094
		s-1.121,0.589-1.121,0.589s-1.148,2.212-1.148,6.776c0,2.27,0,5.63,0.588,8.99c1.121,6.246,3.921,13.558,10.139,22.604
		c-1.12-7.311-0.56-15.77,3.389-22.604c0.588-0.531,0.588-1.063,1.148-1.623c0.56-1.205,1.12-1.737,2.241-2.886l0.56-0.532
		c0.588-0.588,1.68-1.681,2.241-2.269l2.296-1.681c2.829-2.27,5.658-4.565,8.458-6.777c1.12-1.148,2.829-2.83,3.949-4.482
		c0.588-1.147,1.148-1.764,2.269-2.828c0-0.615,0.56-0.615,0.56-1.205c0.56-0.53,1.148-1.623,1.148-2.211
		c0.532-0.616,0.532-1.148,1.092-2.213c0,0,0-0.617,0-1.205c0.588-1.092,0.588-2.213,0.588-3.893l0,0c0-1.766,0-3.418,0-5.098
		c0-1.766-0.588-3.979-0.588-5.658c0-1.736,0-3.949,0.588-5.629c0.561-1.736,1.121-4.006,2.269-5.63c0,1.624,0,3.894,0.532,5.63
		c0.561,1.68,0.561,3.359,1.148,5.041c0.56,2.27,1.148,5.098,1.681,7.311c0,1.203,0,2.269,0,3.416v0.617
		c0,2.212-0.532,4.48-1.121,6.161c-0.56,1.147-1.148,2.297-1.148,2.829c-0.561,0.531-0.561,1.12-1.092,1.736l-0.561,0.531
		c-0.588,0.532-0.588,1.147-1.148,1.682c-1.708,2.828-3.949,5.098-6.218,7.31c-2.829,2.829-6.19,5.099-9.579,6.834l-0.588,0.56
		c0.588,0.533,1.681,1.653,2.829,2.802c3.949,3.978,10.167,9.606,19.746,15.854c4.538,2.802,10.167,5.63,16.385,8.431
		c1.148,0.531,1.709,0.531,2.829,1.147c3.949,1.681,7.898,2.829,12.436,4.511c1.681,0.53,3.389,1.119,5.069,1.735
		c9.579,2.802,19.773,4.427,32.181,6.162c2.269,0,3.978,0.53,6.218,0.53h0.562c0,0,0,0.617,0.588,0.617
		c0.533,1.147,1.681,3.416,2.856,6.246c0,0.531,0.531,0.531,0.531,1.063c0.532,1.735,1.682,2.829,2.801,4.565
		c5.658,8.457,16.386,19.186,36.72,24.282c0,0-17.533-20.391-13.557-45.766c9.047-11.261,14.145-16.356,19.186-20.39
		c1.121-0.532,2.27-1.598,3.949-2.801c1.148-1.094,2.829-2.214,4.565-3.361c1.063-0.532,2.213-1.682,3.36-2.297
		c0.531-0.532,1.68-1.063,2.269-1.681c0.532-0.532,1.093-0.532,1.093-1.12c1.12-0.533,1.736-1.093,2.27-1.681
		c3.949-2.829,7.365-5.042,7.365-5.042S280.912,231.754,275.814,231.193z M110.932,173.05c1.092,3.949,2.829,7.31,4.509,10.728
		c0.56,1.147,1.12,2.801,2.269,3.949c1.092,2.297,2.829,4.51,4.509,6.188c-1.121-1.092-2.241-2.297-3.417-3.894
		c-3.921-4.565-7.338-8.543-9.579-14.171c-0.561-1.121-1.121-2.213-1.121-3.418c-0.56-1.064-0.56-1.68-0.56-2.828
		c0-0.532,0-1.064-0.56-1.652c0-1.148-0.56-2.213-0.56-3.445c-0.588-4.426-1.148-10.111-0.588-16.889c0,0,0.588,6.777,2.829,15.293
		c0,1.063,0.561,2.212,0.561,3.36c0.56,1.12,0.56,2.269,1.148,3.333C110.372,170.753,110.372,171.901,110.932,173.05z
		 M246.436,64.015L246.436,64.015L246.436,64.015L246.436,64.015z M162.858,119.442c1.709,0,3.39,0,5.098,0c1.12,0,2.241,0,2.829,0
		c5.63-0.616,9.578-1.205,11.848-1.765c10.727-1.652,20.895-10.195,27.672-15.825c2.24-2.212,4.51-4.481,5.631-5.629l0.56-0.532
		c0,0,0,0,0.588-0.532c3.978-3.445,7.339-7.926,10.699-11.959l1.735-2.213l2.27-2.212l1.093-1.737
		c1.12-1.064,1.736-2.296,2.802-3.361c1.146-1.148,1.764-1.736,2.828-2.801c2.268-1.765,4.033-3.445,6.245-5.125
		c0.589-0.532,1.12-0.532,1.681-1.12h0.532l0,0l0,0c1.204,0,1.736,0.588,2.269,1.12c0.533,0.56,1.736,1.681,2.298,2.297
		c0.53,0.532,0.53,1.064,1.12,1.596c0.56,0.616,1.147,1.232,1.147,1.765c1.063,1.681,2.296,4.565,2.829,7.366
		c0.531,2.829,1.064,5.042,1.68,7.842c0.588,2.885,0.588,5.097,0.588,7.926c0,3.949-0.588,7.926-1.203,11.875
		c0,1.064-0.532,1.681-0.532,2.829c0,0.532,0,1.064,0,1.064c-0.531,2.885-1.063,5.098-2.297,7.926
		c-1.063,2.801-1.652,5.098-2.802,7.366c0,0.532-0.53,0.532-0.53,1.148c-0.562,1.148-1.148,2.212-2.298,2.801
		c-2.269,2.829-5.098,5.657-8.459,7.338c-1.118,0-2.801,0.532-3.948,0.532c-0.615,0-1.147,0-1.147-0.532
		c-1.063-0.56-2.269-1.092-3.332-1.681c-1.766-0.616-3.361-1.68-5.099-2.212c-5.125-2.297-9.606-4.565-14.704-6.246
		c-1.681-0.616-3.921-1.148-5.63-1.681c-1.681-0.616-3.39-0.616-5.067-0.616c-7.928-0.588-15.267,0.616-22.043,2.297
		c-1.148,0.532-2.829,0.532-3.949,1.148c-0.532,0-0.532,0.532-1.12,0.532c-1.148,0.532-1.709,0.532-2.857,1.121
		c-0.532,0-0.532,0.616-1.092,0.616c-0.588,0-0.588,0.532-1.148,0.532c-1.093,0.532-2.24,1.092-3.389,1.681
		c-1.681,0.616-3.949,1.681-5.069,1.681c-1.121,0.532-2.27,0.532-3.39,0.532s-2.269,0-2.801,0c-1.148,0-2.296,0-3.417-0.532
		c-1.68-0.532-2.269-0.532-2.269-0.532v0.532v-0.532l0,0l0,0l0.588,6.778l0,0c0,1.12,0,1.681,0,2.801c0,0.532,0,1.148,0,1.681
		c0,1.148,0.56,2.829,0.56,3.977c0.56,4.48,2.241,9.578,3.949,14.145c1.12,2.828,2.269,5.629,3.949,8.457
		c0.56,1.064,1.12,2.27,1.708,2.801c1.709,2.83,3.949,5.658,6.778,8.459c0,0,0.561,0.532,1.12,0.532
		c4.51,4.565,10.167,7.394,15.797,9.663c0,0,0.588,0,0.588,0.531c2.24,1.147,4.51,2.828,7.338,3.978
		c1.121,0.532,2.241,1.12,3.389,1.12c3.923,1.093,8.459,2.297,12.97,1.681c2.828,0,5.657-0.588,7.897-1.681
		c0.561,0,1.147-0.588,1.147-0.588c0,0.588,0,0.588,0,1.148c0,0,0,0,0,0.531c0,0.588-0.588,1.204-0.588,1.204
		c-0.56,1.063-1.681,2.213-2.802,2.828c-2.269,1.598-4.537,2.213-7.365,2.801c-2.801,0.533-5.629,1.063-8.43,1.063
		c-1.148,0-2.271,0-2.83,0c-1.709,0-2.855,0-4.537-0.53c-4.51-0.533-8.459-2.271-12.407-4.565c-1.148-0.531-1.708-1.063-2.801-1.597
		l0,0c-4.537-2.886-8.486-6.246-12.464-9.662l-0.56-0.533c-0.532-0.53-1.12-1.147-1.681-1.735c-1.709-1.625-2.829-2.828-3.949-4.51
		c-1.681-2.213-3.389-4.48-5.098-6.778c-1.12-1.68-2.269-2.801-2.829-4.48c-0.532-1.148-1.121-2.297-1.681-2.829
		c-1.148-1.681-2.269-3.949-3.389-5.714c0-0.532-0.561-0.532-0.561-1.064c-0.588-0.531-0.588-1.148-1.148-1.736
		c-2.241-4.426-4.481-8.459-6.218-12.939c-1.092-2.829-1.653-5.042-2.241-7.926c0-2.213,0-3.949,0-6.246v-0.532
		c0-0.532,0-1.064,0.588-1.681c0-0.588,0-0.588,0.561-1.148c3.361-11.259,14.648-14.088,19.185-14.088l0,0
		C156.081,118.826,159.47,119.442,162.858,119.442z M93.987,176.466c0,0,4.509,11.791,22.014,24.815
		C110.932,200.133,96.228,190.555,93.987,176.466z M122.779,173.638c-0.56-1.205-1.681-2.27-2.241-2.885
		c-2.296-3.361-3.977-6.778-5.097-10.672c-0.561-1.203-0.561-2.885-0.561-4.004c-0.56-6.19,0-13.557,3.921-22.015
		c0.588-1.064,1.176-2.829,1.736-3.949c0,0-1.736,9.579,0,22.603c0.56,5.629,2.241,12.407,4.481,19.186
		c0.588,1.148,0.588,2.268,1.148,2.828c1.148,2.801,2.829,6.218,5.069,9.047C128.409,180.359,125.608,176.999,122.779,173.638z"/>
	<path fill="#FFFFFF" d="M173.025,98.492C173.025,98.492,172.466,98.492,173.025,98.492c-1.148,0-1.148-0.532-1.681-1.12
		c0-0.616-0.56-0.616-0.56-1.148v0.532c0,0.616,0,1.204,0,1.736c0,0.56,0,1.148,0.56,2.297c0.532,2.269,2.829,3.893,4.51,3.893
		c0.561,0,1.12,0,1.708-0.532c1.093-0.56,1.681-1.092,2.241-2.297c0.56-1.064,0.56-1.68,0.56-2.801c0-0.56,0-1.092,0-1.092
		c-1.12,0-2.24-0.588-3.948-1.204c-0.561,0-1.093-0.532-1.093-0.532l0,0C175.322,97.372,174.174,98.492,173.025,98.492z"/>
</g>
</svg>
