<?xml version="1.0" encoding="UTF-8"?>
<svg id="Layer_2" xmlns="http://www.w3.org/2000/svg" xmlns:xlink="http://www.w3.org/1999/xlink" viewBox="0 0 800 787.72">
  <defs>
    <style>
      .cls-1 {
        fill: #f4f4f4;
      }

      .cls-2 {
        fill: url(#_未命名漸層_20);
      }

      .cls-3 {
        fill: #fff;
      }
    </style>
    <linearGradient id="_未命名漸層_20" data-name="未命名漸層 20" x1="799.23" y1="191.27" x2="799.23" y2="176.02" gradientUnits="userSpaceOnUse">
      <stop offset="0" stop-color="#0036fa"/>
      <stop offset=".18" stop-color="#0600ad"/>
      <stop offset=".22" stop-color="#0600b9"/>
      <stop offset=".32" stop-color="#0800d3"/>
      <stop offset=".43" stop-color="#0900e6"/>
      <stop offset=".56" stop-color="#0a00f4"/>
      <stop offset=".72" stop-color="#0a00fc"/>
      <stop offset="1" stop-color="#0b00ff"/>
    </linearGradient>
  </defs>
  <g id="Layer_1-2" data-name="Layer_1">
    <g>
      <path class="cls-2" d="M798.89,178.61c.03.34.07.69.1,1.02.04.39.09.77.12,1.14.09.9.17,1.78.24,2.61.11,1.27.2,2.46.28,3.58.03.53.07,1.06.1,1.57.06.98.1,1.9.14,2.74-.11-3.22-.39-7.53-.99-12.67ZM798.88,178.61h.01s-.01-.1-.02-.16c0,.06.01.11.01.16ZM798.76,177.56c.04.3.08.6.11.89-.08-.79-.18-1.6-.29-2.43.07.52.12,1.04.18,1.54Z"/>
      <g>
        <g>
          <path class="cls-1" d="M798.89,178.61s-.01-.1-.02-.16c-.08-.79-.18-1.6-.29-2.43.07.52.12,1.04.18,1.54.04.36.09.7.12,1.04.04.34.08.69.11,1.02.04.39.09.77.12,1.14.09.9.17,1.78.24,2.61.11,1.27.2,2.46.28,3.58.03.53.07,1.06.1,1.57.06.98.1,1.9.14,2.74-.11-3.22-.39-7.53-.99-12.67Z"/>
          <path class="cls-1" d="M800,419.43v152.19c0,202.18-186.12,215.38-221.53,216.06v.04H234.85v-.33C-7.94,780.61.04,589.7.04,589.7h-.04v-147.66c5.42-1.89,10.84-3.74,16.27-5.56,23.49-7.83,47.12-14.87,71.13-20.59,5.4-1.3,10.82-2.52,16.27-3.68v177.48c0,107.77,144.41,107.77,144.41,107.77h324.53c123.72,0,123.72-125.84,123.72-125.84v-177.82c5.43,1.09,10.86,2.21,16.27,3.39,23.91,5.18,47.57,11.16,71.13,17.67,5.43,1.5,10.84,3.02,16.27,4.58Z"/>
        </g>
        <path class="cls-3" d="M800,198.03v221.4c-5.42-1.56-10.83-3.08-16.27-4.58-23.57-6.51-47.22-12.49-71.13-17.67-5.41-1.18-10.83-2.3-16.27-3.39v-195.77c0-104.92-136.53-107.68-143.76-107.76H227.4c-123.73,0-123.73,125.82-123.73,125.82v196.12c-5.44,1.16-10.87,2.38-16.27,3.68-24.01,5.72-47.64,12.76-71.13,20.59-5.42,1.81-10.84,3.67-16.27,5.56v-225.95C0-7.34,227.4.03,227.4.03V0h382.15c148.6,18.23,181.33,122.34,188.47,171.86.1.72.2,1.42.3,2.12.09.69.18,1.37.27,2.03.07.52.12,1.04.18,1.54.04.36.09.7.12,1.04.04.34.08.69.11,1.02.04.39.09.77.12,1.14.09.9.17,1.78.24,2.61.11,1.27.2,2.46.28,3.58.03.54.07,1.07.1,1.57.06.98.1,1.9.14,2.74,0,.21.01.42.02.63,0,.26.01.51.02.74.01.26.01.5.02.74-.01.04-.01.08,0,.12.02.9.03,1.68.03,2.32s-.01,1.19-.01,1.56c0,.41-.01.63-.01.63h.04Z"/>
      </g>
      <polygon class="cls-3" points="490.81 441.62 512.27 566.62 400 507.59 287.76 566.62 309.21 441.62 218.36 353.06 343.9 334.85 400 221.11 456.11 334.85 581.67 353.06 490.81 441.62"/>
    </g>
  </g>
</svg>