<svg xmlns="http://www.w3.org/2000/svg" xmlns:xlink="http://www.w3.org/1999/xlink" viewBox="0 0 1099.79 1077.16"><defs><style>.cls-1{fill:url(#linear-gradient);}.cls-2{fill:url(#linear-gradient-2);}.cls-3{fill:url(#linear-gradient-3);}.cls-4{fill:url(#linear-gradient-4);}</style><linearGradient id="linear-gradient" x1="516.08" y1="1002.97" x2="352.75" y2="740.07" gradientUnits="userSpaceOnUse"><stop offset="0" stop-color="#0e4d91"/><stop offset="0.95" stop-color="#2893d1"/></linearGradient><linearGradient id="linear-gradient-2" x1="606.46" y1="934.73" x2="808.05" y2="592.87" gradientUnits="userSpaceOnUse"><stop offset="0" stop-color="#8a4c93"/><stop offset="1" stop-color="#6f579f"/></linearGradient><linearGradient id="linear-gradient-3" x1="520.69" y1="536.35" x2="1099.79" y2="536.35" gradientUnits="userSpaceOnUse"><stop offset="0.15" stop-color="#0e4d91"/><stop offset="0.57" stop-color="#2893d1"/><stop offset="1" stop-color="#02a1ca"/></linearGradient><linearGradient id="linear-gradient-4" y1="510.98" x2="666.92" y2="510.98" gradientUnits="userSpaceOnUse"><stop offset="0.01" stop-color="#0ca1c6"/><stop offset="0.19" stop-color="#03a3c6"/><stop offset="0.64" stop-color="#11b687"/></linearGradient></defs><g id="Layer_2" data-name="Layer 2"><g id="Layer_1-2" data-name="Layer 1"><path class="cls-1" d="M336.84,611.93,261.72,737.62s167.52,283.2,190.8,299.73,136-45.83,116.44-97.66c0,0-15,20.28-31.55,7.51S336.84,611.93,336.84,611.93Z"/><path class="cls-2" d="M765.77,611.93S593.61,901.69,569,939.69c-21.22,32.7-43.47,57.81-67.42,70-30.88,15.79-61.28,13.52-61.28,13.52s33.49,53.9,107,53.9,116.34-56.34,128.35-74.37S837.13,736.87,837.13,736.87Z"/><path class="cls-3" d="M520.69,149.08a38,38,0,0,1,28.8-18c17.65-1.88,28.11,16.57,32.55,23.16L1099.79,1023V773.81S673.31,59.36,665.73,57.8C556.75,35.4,546.83,57.31,520.69,149.08Z"/><path class="cls-4" d="M0,1022S505.42,175.87,528.71,137.56s59-77.75,138.21-77.75c0,0-32.72-56.91-97.27-59.34C499.91-2.16,464.86,4.23,421.29,73S0,773.81,0,773.81Z"/></g></g></svg>