<?xml version="1.0" encoding="utf-8"?>
<!-- Generator: Adobe Illustrator 21.1.0, SVG Export Plug-In . SVG Version: 6.00 Build 0)  -->
<svg version="1.1" id="Layer_1" xmlns="http://www.w3.org/2000/svg" xmlns:xlink="http://www.w3.org/1999/xlink" x="0px" y="0px"
	 viewBox="0 0 300 300" style="enable-background:new 0 0 300 300;" xml:space="preserve">
<style type="text/css">
	.st0{fill:#FFFFFF;}
</style>
<g>
	<path class="st0" d="M143.1,64c-47.5,0-86,38.5-86,86s38.5,86,86,86s86-38.5,86-86S190.6,64,143.1,64z M120.4,219
		c-3.9,0-7.2-3.2-7.2-7.2c0-3.9,3.2-7.2,7.2-7.2c4,0,7.2,3.2,7.2,7.2C127.6,215.8,124.4,219,120.4,219z M144.6,128.6
		c0-2.8,2.3-4.9,4.9-4.9c2.8,0,4.9,2.3,4.9,4.9c0,2.8-2.3,4.9-4.9,4.9C146.9,133.5,144.6,131.3,144.6,128.6z M158.1,197.4
		c-3.5,0-6.3-2.8-6.3-6.3s2.8-6.3,6.3-6.3c3.5,0,6.3,2.8,6.3,6.3S161.6,197.4,158.1,197.4z M169.6,104.7c-3.5,0-6.3-2.8-6.3-6.3
		c0-3.5,2.8-6.3,6.3-6.3s6.3,2.8,6.3,6.3C176,101.8,173.2,104.7,169.6,104.7z M178.8,171.3c-2.3,0-4.2-1.8-4.2-4.2
		c0-2.3,1.8-4.2,4.2-4.2s4.2,1.8,4.2,4.2C183,169.4,181.1,171.3,178.8,171.3z"/>
	<circle class="st0" cx="69.5" cy="221.1" r="9.2"/>
	<circle class="st0" cx="251.5" cy="81.6" r="9.2"/>
	<circle class="st0" cx="211.1" cy="77.5" r="7.2"/>
	<circle class="st0" cx="12.9" cy="206.4" r="12.7"/>
	<circle class="st0" cx="287.3" cy="115.9" r="12.7"/>
</g>
</svg>
