<svg xmlns="http://www.w3.org/2000/svg" viewBox="0 0 537.54 545.97"><defs><style>.cls-1{fill:#fff;}</style></defs><g id="Layer_2" data-name="Layer 2"><g id="Layer_1-2" data-name="Layer 1"><path class="cls-1" d="M268.75,204.52H44.94A27.91,27.91,0,0,1,16.63,177V78.12A28,28,0,0,1,44.46,50.29H195.31a7.72,7.72,0,0,0,3.46-.85Q229.41,33.6,260,17.68a10,10,0,0,1,3.8-.91c2.38-.14,4.8.13,7.17-.08A16.42,16.42,0,0,1,280.28,19q29.14,15.32,58.43,30.39a8.6,8.6,0,0,0,3.79.94q75.08.08,150.15,0a27.94,27.94,0,0,1,28.22,27.64v98.51a27.92,27.92,0,0,1-27.78,28.08H268.75ZM156.86,93h55.36c3.24,0,4.68-1.45,4.69-4.69s0-6.53,0-9.8-1.43-4.75-4.66-4.75H141.39c-3.28,0-4.69,1.42-4.7,4.68v95c0,3.34,1.43,5,4.47,5h71.21c2.94,0,4.5-1.57,4.54-4.55v-9.45c0-4-1.3-5.31-5.37-5.31H159.05c-.73,0-1.45-.08-2.2-.12V134h30.67c3.28,0,4.71-1.39,4.74-4.66V118.64c0-3.35-1.46-4.72-4.87-4.72H158.88c-.67,0-1.34-.07-2-.1Zm180.55,0h55.25c3.46,0,4.84-1.4,4.85-4.89v-9.8c0-3.06-1.47-4.55-4.5-4.55H321.8c-3.05,0-4.5,1.46-4.5,4.52v95.53c0,3.1,1.53,4.58,4.66,4.58h70.86c3.17,0,4.67-1.53,4.69-4.75v-8.92c0-4.45-1.17-5.64-5.57-5.64H337.46V134h30.69c3.26,0,4.69-1.4,4.72-4.68V118.62c0-3.28-1.47-4.7-4.71-4.7h-28.7c-.67,0-1.34-.07-2.06-.11Zm-43.93,29.35h8c3.79,0,5.41-1.66,5.41-5.45V61.94a4.5,4.5,0,0,0-4.21-4.77q-.31,0-.63,0H289.28a3.94,3.94,0,0,0-3.84,1.94,8.57,8.57,0,0,0-.85,3.65q-.07,24.33,0,48.64c0,1.64-.47,2.11-2.06,2-2.56-.12-5.13-.07-7.7,0a4.44,4.44,0,0,0-4.62,4.25,2.54,2.54,0,0,0,0,.39v22.21c0,.53-.48,1.48-.81,1.51-1.65.16-3.33.07-5.18.07V119.76c0-4-1.67-5.63-5.61-5.64H250V61.65a4.51,4.51,0,0,0-4.54-4.49h-12c-3.15,0-5.07,1.79-5.08,4.94v54.41c0,2.95,1.86,4.75,4.84,4.84,2.51.07,5,0,7.52,0,.56,0,1.12.06,1.85.11v22.12c0,4.85,1.29,6.16,6.07,6.16h6.12c.68,0,1.35.07,2.15.12v23.27c0,3.39,1.8,5.15,5.2,5.16h11.9c3.45,0,5.24-1.81,5.25-5.29V152.88c0-.68.06-1.35.1-2.17h9.09c3.25,0,5-1.9,5-5.16V124.38ZM58.75,126v47.42c0,3.22,1.46,4.91,4.33,4.91h59.15c2.72,0,4.31-1.64,4.33-4.38v-9.8c0-3.8-1.35-5.12-5.19-5.12H80.65c-2.6,0-2.6,0-2.6-2.66V78.53c0-3.41-1.37-4.79-4.75-4.8H64c-4,0-5.23,1.25-5.24,5.22Q58.75,102.5,58.75,126Zm373.46,33V78.88c0-4-1.23-5.18-5.24-5.19H417a3.87,3.87,0,0,0-4,3.74v96.62a4,4,0,0,0,3.73,4.26,3.49,3.49,0,0,0,.56,0h59.15a4,4,0,0,0,4.36-3.6,4.69,4.69,0,0,0,0-.75v-9.8c0-3.81-1.34-5.15-5.16-5.15H432.24Z"/><path class="cls-1" d="M282.75,355.47h44.39c-.48-.8-.78-1.33-1.11-1.85q-21.15-33-42.27-66.13a7.37,7.37,0,0,1-1-3.72c-.08-13.59-.05-27.18,0-40.77,0-6.82,4.17-11,11-11H438.61c6.72,0,10.77,4,10.79,10.76V262.4h2c6,0,11.9.1,17.85,0s10.6,4.7,10.36,9.54c0,.81.1,1.63.1,2.44v84.69a22,22,0,0,1-.32,4.52c-1,4.47-4.94,7.45-9.9,7.5H451.85c0,.83-.12,1.5-.12,2.17-.05,6.3,0,12.6-.19,18.89a9.79,9.79,0,0,1-9.59,9.29H331.17v78.15a9.76,9.76,0,0,1-9.37,10.14H292.75a9.82,9.82,0,0,1-10-9.63v-123A15.55,15.55,0,0,1,282.75,355.47Zm148.55-75H333v68.6h98.4Z"/><path class="cls-1" d="M231,461.42c0,.86-.09,1.54-.1,2.22-.05,5.77,0,11.55-.19,17.31a9.61,9.61,0,0,1-9.42,8.81H101.4c-5.32,0-9.3-4.48-9.35-10.54V460c-.76,0-1.38-.09-2-.09H72.55c-5.45-.05-9.6-3.29-10.54-8.15a13.23,13.23,0,0,1-.16-2.44V242.81c0-6.58,4.22-10.78,10.86-10.79H97.38c6.91,0,11.1,4.18,11.1,11.1V441.45h102.1V243.34c0-3.1.61-5.88,2.82-8.18a10.11,10.11,0,0,1,7.52-3.16c9.22,0,18.43-.07,27.65,0a9.74,9.74,0,0,1,10.15,9.63c.24,5.53.16,11.08.17,16.61v25a8.8,8.8,0,0,1-1.46,5.06q-20.93,32.58-41.77,65.2c-.34.53-.65,1.07-1.12,1.86h44.32v94.46c0,6.09-2.8,10.1-7.86,11.27a10.42,10.42,0,0,1-2.43.22H233Z"/><path d="M268.75,546q-111.46,0-222.94-.07c-12,0-23-3.77-31.83-12.3A41.76,41.76,0,0,1,1.39,510.52,71.5,71.5,0,0,1,0,497.88Q0,289.13.07,80.35c0-12.14,3.46-23.3,12-32.31A41.26,41.26,0,0,1,34.14,35.37a77.68,77.68,0,0,1,15.58-1.71q70.79.09,141.57,0a8.5,8.5,0,0,0,3.8-.9c19.2-9.93,38.3-20,57.58-29.79C256,1.27,260.1.87,263.9.16c1.92-.36,4,0,5.94-.08a32.13,32.13,0,0,1,12.38,1.68A50.83,50.83,0,0,1,289.16,5l54.27,28.19a6.23,6.23,0,0,0,2.86.5c48.3,0,96.59-.06,144.89.08,12.07,0,23.16,3.57,32.09,12.08a41.13,41.13,0,0,1,12.56,21.94,77.84,77.84,0,0,1,1.71,15.58q-.06,208.06-.08,416.13c0,12.07-3.48,23.17-12,32.14-6,6.33-13.13,10.84-21.89,12.64A76.22,76.22,0,0,1,488,546Q378.37,545.9,268.75,546Zm0-341.42h224a27.92,27.92,0,0,0,28.1-27.76V78.46a27.93,27.93,0,0,0-27.71-28.15H342.48a8.6,8.6,0,0,1-3.79-.94Q309.43,34.25,280.26,19A16.42,16.42,0,0,0,271,16.71c-2.37.21-4.79-.06-7.17.08a10,10,0,0,0-3.8.91q-30.63,15.78-61.26,31.69a7.72,7.72,0,0,1-3.46.85q-75.42.06-150.85,0A28,28,0,0,0,16.61,78.07v98.17a27.92,27.92,0,0,0,27.61,28.23h.7Zm14,151c0,.68-.11,1.19-.11,1.7V479.91a9.81,9.81,0,0,0,9.72,9.92H321a9.75,9.75,0,0,0,10.1-9.4c0-.25,0-.49,0-.74V401.54H441.94a9.79,9.79,0,0,0,9.59-9.29c.22-6.29.13-12.59.19-18.89,0-.67.07-1.35.12-2.17h17.64c5,0,8.93-3,9.9-7.5a22,22,0,0,0,.32-4.52V274.48c0-.81-.13-1.63-.1-2.44.23-4.85-4.33-9.67-10.36-9.54s-11.9,0-17.85,0h-2V242.86c0-6.72-4.07-10.76-10.79-10.76H293.75c-6.87,0-11,4.15-11,11v40.77a7.37,7.37,0,0,0,1.07,3.72q21.07,33.11,42.27,66.13c.33.52.63,1,1.11,1.85ZM231,461.42h17.57a10.42,10.42,0,0,0,2.43-.22c5.06-1.17,7.85-5.18,7.86-11.27V355.47H214.55c.48-.79.79-1.34,1.12-1.86q20.87-32.61,41.77-65.2a8.8,8.8,0,0,0,1.46-5.06c-.07-8.34,0-16.68,0-25,0-5.54.07-11.08-.17-16.61-.25-5.69-4.41-9.58-10.15-9.63-9.21-.08-18.43,0-27.65,0a10.11,10.11,0,0,0-7.52,3.16c-2.21,2.3-2.82,5.08-2.82,8.18V441.54H108.48V243.21c0-6.92-4.19-11.1-11.1-11.1H72.71c-6.64,0-10.86,4.22-10.86,10.79V449.38a13.23,13.23,0,0,0,.16,2.44c.94,4.86,5.09,8.1,10.54,8.15,5.83,0,11.67,0,17.5,0,.62,0,1.24,0,2,.09v19.25c0,6.05,4,10.54,9.35,10.54H221.26a9.61,9.61,0,0,0,9.42-8.81c.23-5.76.14-11.54.19-17.31C230.88,463,230.93,462.28,231,461.42Z"/><path d="M156.86,93v20.78c.69,0,1.36.1,2,.1h28.52c3.41,0,4.84,1.37,4.87,4.72v10.67c0,3.27-1.47,4.66-4.74,4.66H156.85v25c.75,0,1.47.12,2.2.12h52.49c4.07,0,5.37,1.28,5.37,5.31v9.45c0,3-1.59,4.55-4.54,4.55H141.16c-3,0-4.47-1.61-4.47-5v-95c0-3.26,1.42-4.68,4.7-4.68h70.86c3.23,0,4.64,1.46,4.66,4.75s0,6.53,0,9.8S215.45,93,212.21,93Z"/><path d="M337.41,93v20.78c.72,0,1.39.11,2.06.11h28.68c3.24,0,4.68,1.42,4.71,4.7v10.67c0,3.28-1.46,4.68-4.72,4.68H337.46v25.16H392c4.39,0,5.56,1.19,5.57,5.64v8.92c0,3.22-1.53,4.75-4.69,4.75H322c-3.14,0-4.66-1.48-4.66-4.58V78.27c0-3.06,1.45-4.52,4.5-4.52H393c3,0,4.47,1.49,4.5,4.55v9.8c0,3.49-1.39,4.89-4.85,4.89H337.41Z"/><path d="M293.48,122.33v23.29c0,3.27-1.78,5.12-5,5.16h-9.09c0,.82-.1,1.49-.1,2.17v20.12c0,3.48-1.8,5.28-5.25,5.29h-11.9c-3.4,0-5.19-1.77-5.2-5.16V149.93c-.8,0-1.48-.11-2.15-.12h-6.12c-4.78,0-6.07-1.31-6.07-6.16V121.53c-.72,0-1.29-.1-1.85-.11h-7.52c-3-.09-4.84-1.89-4.84-4.84V62.17c0-3.15,1.93-4.93,5.08-4.94h11.72A4.52,4.52,0,0,1,250,61.48a1.93,1.93,0,0,1,0,.24c.05.7,0,1.4,0,2.1v50.37h8.58c3.94,0,5.61,1.67,5.61,5.64V141.9c1.85,0,3.53.08,5.18-.07.33,0,.8-1,.81-1.51.06-5.95,0-11.9,0-17.84v-4.37a4.45,4.45,0,0,1,4.23-4.64h.39c2.56-.06,5.14-.1,7.7,0,1.59.07,2.07-.4,2.06-2q-.09-24.31,0-48.64a8.57,8.57,0,0,1,.85-3.65,3.94,3.94,0,0,1,3.84-1.94H302a4.51,4.51,0,0,1,4.84,4.14q0,.32,0,.63v54.93c0,3.78-1.63,5.42-5.41,5.45C298.91,122.34,296.35,122.33,293.48,122.33Z"/><path d="M58.75,126V79c0-4,1.25-5.22,5.24-5.22h9.27c3.38,0,4.74,1.39,4.75,4.8v77.87c0,2.66,0,2.66,2.6,2.66h40.77c3.84,0,5.18,1.33,5.19,5.12V174a4,4,0,0,1-4.33,4.38H63.09c-2.87,0-4.33-1.69-4.33-4.91Q58.75,149.75,58.75,126Z"/><path d="M432.24,159.07h43.41c3.81,0,5.15,1.34,5.16,5.15V174a4,4,0,0,1-3.62,4.35,3.05,3.05,0,0,1-.74,0H417.3a4,4,0,0,1-4.29-3.69,5.23,5.23,0,0,1,0-.56c-.05-2.62,0-5.25,0-7.87V77.71a3.87,3.87,0,0,1,3.79-3.95H417c3.32-.06,6.65,0,10,0,4,0,5.24,1.22,5.24,5.19v77.52C432.24,157.24,432.24,158,432.24,159.07Z"/><path d="M431.34,280.52v68.55H333V280.52Z"/></g></g></svg>