<svg id="Layer_1" data-name="Layer 1" xmlns="http://www.w3.org/2000/svg" viewBox="0 0 800 800"><defs><style>.cls-1{fill:#fff;}</style></defs><title>White</title><path id="_Path_" data-name="&lt;Path&gt;" class="cls-1" d="M97.22,354.14,0,537.87C256,509.5,508.68,358.61,508.68,358.61L232.73,605l83.22,129.76C405.4,554.23,536.34,344.17,653.33,234.27l1.53-21.09C537.06,268,358.38,335.48,97.22,354.14Z"/><path id="_Path_2" data-name="&lt;Path&gt;" class="cls-1" d="M735.83,177.27,797.42,166a3.27,3.27,0,0,0,0-6.4l-61.59-11.29a18.4,18.4,0,0,1-14.63-15.2l-10.87-64a3.11,3.11,0,0,0-6.16,0l-10.87,64a18.4,18.4,0,0,1-14.63,15.2l-61.59,11.29a3.27,3.27,0,0,0,0,6.4l61.59,11.29a18.4,18.4,0,0,1,14.63,15.2l10.87,64a3.11,3.11,0,0,0,6.16,0l10.87-64A18.4,18.4,0,0,1,735.83,177.27Z"/></svg>