<svg xmlns="http://www.w3.org/2000/svg" viewBox="0 0 1362.62 1370.24"><defs><style>.cls-1{fill:#fff;}</style></defs><g id="Layer_2" data-name="Layer 2"><g id="Layer_1-2" data-name="Layer 1"><g id="Layer_2-2" data-name="Layer 2"><g id="Layer_1-2-2" data-name="Layer 1-2"><path class="cls-1" d="M404.12,422.42c69.75-42.18,144.86-64.87,226-68.42-24.6-93.38-23.64-184.45,16.06-273.7-32,25.22-56,55.87-71.24,93.06-15.22,37-20.86,75.62-17.57,116.06-1.07-.7-1.62-.86-1.82-1.21a33.63,33.63,0,0,1-1.72-3.58A1506.91,1506.91,0,0,0,470.4,110.48C450.18,74.61,428.19,39.87,402.83,7.36c-1.65-2.12-3.4-4.17-6-7.36-6.5,112.41,9.92,220.86,32,328.94C385,257.38,323.21,214.38,238.5,207.41,320.11,258.6,371.84,332.84,404.12,422.42Z"/><path class="cls-1" d="M775,889c-16.25-12.21-34.91-16.48-52.45-16.64a145.88,145.88,0,0,0-54.92,10.13c-35.64,14-60.55,44.24-55.27,87.45,5.45,44.66,36.53,74.24,82.78,76.58,19.69,1,38.74-2.72,57-10.16h0c41.73-17,62.3-55.75,52.46-99.09C800.2,917.9,791.26,901.19,775,889Z"/><path class="cls-1" d="M972.72,817.67c18.28.08,32.09-13.68,32.13-31.59s-13.59-31.66-31.44-31.71-31.85,13.63-31.9,31.3C941.47,803.67,955.06,817.6,972.72,817.67Z"/><path class="cls-1" d="M238.42,724.32c-7.81-.32-11.46.9-18,2.18-11.19,2.2-5.17,1.09-15.72,4.2-31,9.1-51.88,29-58.71,61.1-6.3,29.52-.9,57.63,15,83.28,11.9,19.23,29.54,30.55,51.9,34.73,16.39,3.06,32.52,1.74,48.39-2.33,42.72-10.94,63-40.9,63.07-81.11,0-13.21-3.07-26.78-6.84-39.57C306.06,748,276.7,725.91,238.42,724.32Z"/><path class="cls-1" d="M681.05,795.51c20.83-4.25,39.09-13.45,52.35-30.51,18-23.19,18.94-48.89,9.32-75.58-9-24.91-26.08-41.18-52.48-46.08-28.68-5.33-55.62.2-80,16.2-14.3,9.41-23.44,23-27.35,39.77a84.07,84.07,0,0,0-1.4,30.69c2.36,17.3,8,33,20.38,45.59,15.6,15.93,35,22.41,57,22.81C666.27,797.51,673.76,797,681.05,795.51Z"/><path class="cls-1" d="M1361.46,935.17c-3.92-27.9-15.51-52.59-36.92-71.22-30.15-26.23-65.31-36.16-105.24-28.11a16.85,16.85,0,0,1,.86-2.69c7.85-14.3,15.76-28.57,23.57-42.89,1.7-3.12,3.63-2.63,6.12-1.14,6.86,4.1,13.83,8,20.67,12.13,12.65,7.64,26,11.37,40.23,5.52,5.2-2.13,10.57-5.33,14.22-9.49,9.55-10.87,12.83-23.69,8.5-38-1-3.18-1.56-6.46-2.42-9.67l-38.78-145.45c-1.84-6.94-4-13.58-8.62-19.36-8.24-10.23-19.65-13.54-31.76-14-6.09-.22-12.32,2.44-18.42,4.07q-72.75,19.33-145.46,38.8c-4.65,1.24-9.58,2.07-13.79,4.23l-.81.44q-12.11-19.3-26.08-37.62a462.35,462.35,0,0,0-49.84-55.64,487.58,487.58,0,0,0-338.6-136.19q-13.41,0-26.67.72h-.08q-3.46.19-6.92.42l-2.93.2-3.44.27c-166.1,13.3-294.24,109.21-357.41,201.6h.49l-1.11,1.56c-28.72-2.4-57.06,2.42-85.27,8.68C124.91,613.58,81.12,636.22,47.4,676.2c-16.64,19.73-30.14,41.62-36.3,67C6.91,760.44,2.7,777.86.89,795.44c-2.79,27.18,1.29,54,7.68,80.59,6.55,27.19,15.49,53.22,31,76.85,24.29,37,56.51,63.8,98.54,78.4a19.16,19.16,0,0,1,2.77,1.63,26.37,26.37,0,0,1-3.85,1.48c-9.13,1.76-18.35,3.13-27.4,5.23-11.36,2.63-23.55,3-33,11.42-9.57,8.61-14.78,19.91-12.81,32,6.41,39.44,25.28,73.19,52.57,101.81,25.66,26.92,56.73,45.1,93.46,53.66,23.88,5.57,47.89,9.35,72.18,6.79,14.32-1.51,28.56-4.07,42.73-7l2,1.86-1.48.37c1.83,1.43,2.76,2.08,3.61,2.83a500,500,0,0,0,103.57,71.9,482.83,482.83,0,0,0,155,49.81,491.83,491.83,0,0,0,67.92,5.17h2.72q3.76,0,7.51-.06c168.55-2.28,316.54-89.87,402.91-221.64a477,477,0,0,0,63.78-142.78,3.78,3.78,0,0,0,.24-.92q1.13-4.3,2.17-8.62c13.8,30.38,35,52.53,65.81,64.76,32.57,12.9,65.4,11.42,96.36-3.6C1346.17,1033.44,1368.11,982.53,1361.46,935.17ZM974,706.14c46.93.74,79.72,37.3,79.15,80.68-.61,47.33-38.85,79.46-80.85,79a79.76,79.76,0,0,1-78.92-79.94C893.7,740.37,929.73,705.44,974,706.14ZM459.39,1035.62c-2.23,29.35-7.59,58-21.29,84.47-17.71,34.28-45.83,56.48-81.22,70.17a262.11,262.11,0,0,1-72.68,16.35c-34.58,3-67.82-1.55-98.82-17.55-40.42-20.94-66-54.43-80.57-96.94-4.18-12.2-4.08-12.25,8.39-14.66,27.06-5.23,54.17-10.37,81.17-15.72,4.71-.93,7.12-.19,9.31,4.81,10.73,24.5,27.83,42.59,55.16,47.29,29.14,5,56.84.76,80.32-18.89,13.94-11.67,20-28,23.35-45.26,4.16-21.74,4-43.66,1.33-65.56-2.15-17.9-4.54-35.77-6.83-53.65h-1.23c-3.37,5-6.46,10.3-10.15,15.1-21.52,28-50.78,43.83-84.25,52.83a193.31,193.31,0,0,1-51.77,6.66c-72.86-.57-129-38-155.69-108.74-11.82-31.4-17.29-64-15-97.4,4.26-62.19,33.63-109,88.63-139,27.36-14.93,57-23,87.82-26.22,12.87-1.34,25.91-2.33,38.82-1.9,45.62,1.54,84.2,18.6,114.5,53.4,25.64,29.46,41.31,64.19,53.55,100.7,12,36,20.25,73,26.3,110.41,3.31,20.48,6.56,41,8.7,61.57C460,983.7,461.39,1009.62,459.39,1035.62Zm297.93,94.75c-26,6.42-52.41,9.39-79.11,7.89-48.58-2.73-92.24-17.66-126.7-53.81-21.24-22.28-34-49.06-40.18-79-6.5-31.63-5.53-62.79,7.42-92.94,10.67-24.84,27.59-44.55,49.34-60.31,1.18-.85,2.32-1.74,3.1-2.32-10.88-5-22-9.41-32.43-15.19-35.79-19.94-55.91-51.28-63.91-90.81-7.47-36.83-2.47-71.76,17.53-104,15.11-24.38,36.24-42.35,61.24-56,28.47-15.58,59.12-24.82,91.12-29.2,15-2,30.14-3.82,45.14-3.71,36.39.26,71.07,7.86,101.47,29.16,33.11,23.2,52,55.33,58.33,95.08,6.07,37.85-1.65,72.5-24.65,103.21-7.52,10-16.85,18.75-25.22,27.92,6.62,2.21,14.32,4.51,21.82,7.32,16.23,6.08,31.06,14.79,43.58,26.7,6.42,6.16,14.12,15.61,19.12,22,16,20.31,23.31,40.77,27.55,65.22,9.39,54.1-3.54,102-42,141.89C838.86,1101.69,800.11,1119.81,757.32,1130.37ZM1118.43,937q-51.26,92.54-102.4,185.14a10.48,10.48,0,0,1-7.43,5.8c-32.34,7.62-64.62,15.51-96.92,23.28-1.68.41-3.47.55-7,1.08l251.45-461.69-64-37.1.13-1.65,162-43.29,43.63,163.29c-3-1.41-4.54-2-6-2.88-18.75-10.79-37.52-21.5-56.17-32.5-3.41-2-5.13-2.18-7.35,1.76Q1173.44,837.62,1118.43,937Zm125.86,94.12c-46.25.17-79.71-37.24-79.58-79.76.16-43,35.08-80.57,80.16-79.72,40.06-.91,79.55,32.07,79.58,79.7,0,41.85-32,79.57-80.16,79.75Z"/><path class="cls-1" d="M1245.49,919.48c-18.29-.16-32.83,13.85-32.91,31.72v.22a31.63,31.63,0,0,0,31.79,31.47h0c17,.48,31.72-12.53,32.19-31.81C1277,934.31,1262.11,919.63,1245.49,919.48Z"/></g></g></g></g></svg>