<svg xmlns="http://www.w3.org/2000/svg" viewBox="0 0 111.77 118.81"><defs><style>.cls-1{fill:#fff;}</style></defs><g id="Layer_2" data-name="Layer 2"><g id="Layer_1-2" data-name="Layer 1"><path class="cls-1" d="M52.9,79.19l-11-39.57,11,0L42.22,1.1A1.5,1.5,0,0,0,40.77,0H1.5A1.49,1.49,0,0,0,.06,1.9L10.51,39.57l-9,0a1.51,1.51,0,0,0-1.45,1.9L10.51,79.19l-9,0a1.51,1.51,0,0,0-1.45,1.9L10.2,117.71a1.5,1.5,0,0,0,1.45,1.1H52.9l-11-39.57Z"/><path class="cls-1" d="M69.84,79.24l-11,39.57h41.25a1.51,1.51,0,0,0,1.45-1.1l10.15-36.57a1.49,1.49,0,0,0-1.45-1.9l-9,0,10.46-37.67a1.49,1.49,0,0,0-1.45-1.9l-9,0L111.7,1.9A1.49,1.49,0,0,0,110.25,0H71a1.51,1.51,0,0,0-1.45,1.1L58.84,39.57l11,0-11,39.57,11,0Z"/></g></g></svg>