<svg xmlns="http://www.w3.org/2000/svg" viewBox="0 0 379.69 187.2"><defs><style>.cls-1{fill:#fff;}</style></defs><g id="Layer_2" data-name="Layer 2"><g id="Layer_1-2" data-name="Layer 1"><rect class="cls-1" x="320.71" y="128.22" width="58.98" height="58.98"/><rect class="cls-1" x="320.71" y="64.11" width="58.98" height="58.98"/><path class="cls-1" d="M379.64,59H320.71V.05A61.66,61.66,0,0,1,379.64,59Z"/><path class="cls-1" d="M315.58.05V59H256.66A61.63,61.63,0,0,1,315.58.05Z"/><path class="cls-1" d="M315.53,64.11A61.64,61.64,0,0,1,256.6,123V64.11Z"/><path class="cls-1" d="M251.48,64.11V123a61.63,61.63,0,0,1-58.93-58.93Z"/><path class="cls-1" d="M251.42,59H192.5V.05A61.65,61.65,0,0,1,251.42,59Z"/><rect class="cls-1" x="128.39" y="128.22" width="58.98" height="58.98"/><rect class="cls-1" x="128.39" y="64.11" width="58.98" height="58.98"/><rect class="cls-1" x="128.39" width="58.98" height="58.98"/><path class="cls-1" d="M123,128.22a61.61,61.61,0,0,1-58.93,58.92V128.22Z"/><path class="cls-1" d="M58.93,128.22v58.92A61.61,61.61,0,0,1,0,128.22Z"/><path class="cls-1" d="M58.93,64.11V123A61.63,61.63,0,0,1,0,64.11Z"/><path class="cls-1" d="M123,123.09H64.06V64.16A61.64,61.64,0,0,1,123,123.09Z"/><rect class="cls-1" x="64.06" width="58.98" height="58.98"/><path class="cls-1" d="M58.93.05V59H0A61.64,61.64,0,0,1,58.93.05Z"/></g></g></svg>