<svg xmlns="http://www.w3.org/2000/svg" xmlns:xlink="http://www.w3.org/1999/xlink" viewBox="0 0 278.98 279.01"><defs><style>.cls-1{fill:#fff;}.cls-2{clip-path:url(#clip-path);}</style><clipPath id="clip-path"><polygon class="cls-1" points="206.87 0 278.98 72.11 278.98 0 206.87 0"/></clipPath></defs><title>UPG Menu Logo White</title><g id="Layer_2" data-name="Layer 2"><g id="Layer_1-2" data-name="Layer 1"><path class="cls-1" d="M183.89,11.36H33.95A34,34,0,0,0,0,45.31V245.07A34,34,0,0,0,34,279H233.67a34,34,0,0,0,33.95-33.95V95.1ZM133.66,246.89A81.85,81.85,0,0,1,51.81,165V82.2L85.3,48.71V165a48.39,48.39,0,0,0,96.78,0c0-.47-.06-.92-.07-1.38V48.9L215.5,82.39V165A81.85,81.85,0,0,1,133.66,246.89Z"/><polygon class="cls-1" points="206.87 0 278.98 72.11 278.98 0 206.87 0"/><g class="cls-2"><rect class="cls-1" x="206.87" width="72.11" height="72.11"/></g></g></g></svg>